<svg id="TEXT_M" xmlns="http://www.w3.org/2000/svg" xmlns:xlink="http://www.w3.org/1999/xlink" width="3299.44" height="361.72" viewBox="0 0 3299.44 361.72"><defs><style>.cls-1{fill:none;}.cls-2{clip-path:url(#clip-path);}.cls-3{fill:#231f20;}</style><clipPath id="clip-path"><rect class="cls-1" width="3299.44" height="357.17"/></clipPath></defs><title>A0_TEXT_M</title><g class="cls-2"><path class="cls-3" d="M-16.25,191.72V181c0-8.2,5.48-12.8,13.8-12.8,9.68,0,14.12,5.12,14.12,14v9.6ZM6.31,184.2v-1.64c0-4.32-3.08-6.48-8.48-6.48-7.16,0-8.56,3.44-8.56,7.52v.6Z"/><path class="cls-3" d="M-16.25,164.32V156.8H11.67v7.52Z"/><path class="cls-3" d="M-4.49,139.92V129.08H10.59a21.19,21.19,0,0,1,1.56,8.44c0,8.6-5,15.08-14.28,15.08-8.44,0-14.6-5-14.6-15.44a21.88,21.88,0,0,1,1.12-7.24l6,.4a11.49,11.49,0,0,0-1.56,6.12c0,5.8,3.68,8.4,9.12,8.4s8.56-2.76,8.56-6.28A4.92,4.92,0,0,0,6,136.12H.71v3.8Z"/><path class="cls-3" d="M-16.25,124.36v-7.52H11.67v7.52Z"/><path class="cls-3" d="M-10.57,107.72v6h-5.68V94.2h5.68v6H11.67v7.52Z"/><path class="cls-3" d="M5.75,77.76V86l5.92,1.8V95l-27.92-9.28V77.4l27.92-8.88v7.76ZM-10.57,81.6v.08l11,3V79.16Z"/><path class="cls-3" d="M-16.25,65.88V58.36H6v-9.2h5.68V65.88Z"/><path class="cls-3" d="M32.28,31.13a14.67,14.67,0,0,0,4.63,4.62c2.46,1.42,4,.84,4.83-.68s.11-2.66-1.35-4.47l-1.1-1.38c-3.08-3.85-3-6.7-1.07-10.13C40.86,14.52,46,14,51.16,17a19.26,19.26,0,0,1,5.53,4.49l-3,4.58A13.73,13.73,0,0,0,49.39,22c-1.94-1.12-3.58-1-4.44.49-.72,1.25-.42,2.16,1.17,4.37l2.15,3c1.6,2.27,2.63,4.89.55,8.49-3.06,5.3-8.43,5.81-14.08,2.55a28.55,28.55,0,0,1-5.9-4.66Z"/><path class="cls-3" d="M72.32,29.22c5.26,3,8.7,9.73,3.52,18.7s-12.69,9.35-18,6.31-8.69-9.74-3.51-18.71S67.06,26.18,72.32,29.22ZM60.49,49.55l0,0c2.73,1.58,5.83-.75,8.59-5.53s3.22-8.62.49-10.2-5.91.79-8.63,5.5S57.76,48,60.49,49.55Z"/><path class="cls-3" d="M90.08,71.57a24.1,24.1,0,0,1-6.49-2.5C76.56,65,74,57.92,78.85,49.43,83,42.3,90.06,39.46,98,44a17.48,17.48,0,0,1,5.21,4.49l-3.42,5.13a11.55,11.55,0,0,0-3.91-4.1c-4.16-2.4-7.66-.82-10.38,3.89-2.4,4.16-1.95,8.66,2.13,11a9.93,9.93,0,0,0,5.43,1.33Z"/><path class="cls-3" d="M107,49.8l6.51,3.76-14,24.17L93,74Z"/><path class="cls-3" d="M117.88,56.08l14.82,8.55-2.76,4.78-8.45-4.88-2.68,4.65,8,4.64-2.76,4.78-8-4.64-3,5.19,8.9,5.14-2.76,4.78-15.27-8.82Z"/><path class="cls-3" d="M137.17,73.77l-5.19-3,2.84-4.91,16.9,9.75-2.84,4.92-5.2-3L132.57,96.79,126.05,93Z"/><path class="cls-3" d="M150.67,95.51l1.57-19.59,7.41,4.28-2,11.2.07,0L166.2,84l7.17,4.14L157.18,99.27l-5.08,8.8-6.51-3.76Z"/><path class="cls-3" d="M158.78,139.38a14.68,14.68,0,0,0-6.31,1.71c-2.46,1.42-2.7,3-1.82,4.52s2.25,1.42,4.54,1.07l1.74-.27c4.88-.74,7.34.71,9.31,4.14,2.64,4.57.47,9.28-4.65,12.24a19.26,19.26,0,0,1-6.66,2.55l-2.46-4.9a13.71,13.71,0,0,0,5.69-1.67c1.94-1.12,2.65-2.59,1.79-4.08-.72-1.25-1.66-1.45-4.37-1.18l-3.67.37c-2.76.25-5.54-.17-7.62-3.77-3.06-5.3-.81-10.2,4.83-13.46a28.67,28.67,0,0,1,7-2.79Z"/><path class="cls-3" d="M119.25,155.14a24,24,0,0,1,5.42-4.37c7-4.06,14.47-2.77,19.37,5.71,4.12,7.14,3,14.7-4.9,19.27a17.55,17.55,0,0,1-6.49,2.28l-2.74-5.54a11.5,11.5,0,0,0,5.51-1.33c4.16-2.4,4.54-6.22,1.82-10.93-2.4-4.16-6.52-6-10.61-3.67a10,10,0,0,0-3.86,4Z"/><path class="cls-3" d="M109.8,173l5.06-2.92-5.68-9.84,6.51-3.76,14,24.18-6.51,3.76-5.36-9.28-5.06,2.92,5.36,9.28-6.51,3.76-14-24.18,6.51-3.76Z"/><path class="cls-3" d="M97.43,199.83c-5.26,3-12.77,2.67-18-6.3s-1.75-15.66,3.52-18.7,12.77-2.67,18,6.3S102.7,196.79,97.43,199.83Zm-11.69-20.4,0,0c-2.74,1.58-2.27,5.42.49,10.2s5.85,7.1,8.59,5.52,2.26-5.51-.45-10.22S88.48,177.85,85.74,179.43Z"/><path class="cls-3" d="M73.05,213.91c-5.27,3-12.78,2.67-18-6.3s-1.75-15.66,3.52-18.7,12.77-2.67,18,6.3S78.31,210.87,73.05,213.91Zm-11.69-20.4,0,0c-2.73,1.58-2.27,5.42.49,10.2s5.85,7.1,8.59,5.52S72.67,203.74,70,199,64.09,191.93,61.36,193.51Z"/><path class="cls-3" d="M58.43,221.8l-6.51,3.76L40.8,206.3l-8,4.6L30,206l14.48-8.36Z"/><path class="cls-3" d="M-16.25,362.47V355H11.67v7.52Z"/><path class="cls-3" d="M-10.57,345.83v6h-5.68V332.31h5.68v6H11.67v7.52Z"/><path class="cls-3" d="M5.75,315.87v8.2l5.92,1.8v7.2l-27.92-9.28v-8.28l27.92-8.88v7.76Zm-16.32,3.84v.08l11,3v-5.52Z"/><path class="cls-3" d="M-16.25,304v-7.52H6v-9.2h5.68V304Z"/><path class="cls-3" d="M32.28,269.25a14.61,14.61,0,0,0,4.64,4.61c2.45,1.42,3.94.85,4.82-.68s.11-2.66-1.34-4.47l-1.1-1.37c-3.09-3.86-3.06-6.71-1.08-10.14,2.64-4.57,7.81-5,12.94-2.09a19.43,19.43,0,0,1,5.53,4.49l-3,4.59a13.77,13.77,0,0,0-4.29-4.09c-1.94-1.12-3.58-1-4.44.48-.72,1.25-.42,2.16,1.17,4.37l2.15,3c1.6,2.26,2.63,4.89.55,8.49-3.06,5.3-8.43,5.8-14.07,2.54a28.43,28.43,0,0,1-5.91-4.65Z"/><path class="cls-3" d="M72.32,267.33c5.27,3,8.7,9.74,3.52,18.71s-12.69,9.34-18,6.3-8.69-9.73-3.51-18.7S67.06,264.29,72.32,267.33ZM60.49,287.66l0,0c2.74,1.58,5.83-.74,8.59-5.52s3.22-8.63.49-10.21-5.91.8-8.63,5.51S57.76,286.08,60.49,287.66Z"/><path class="cls-3" d="M90.09,309.68a23.72,23.72,0,0,1-6.5-2.5c-7-4.06-9.64-11.15-4.74-19.64,4.12-7.13,11.21-10,19.14-5.39a17.34,17.34,0,0,1,5.21,4.49l-3.42,5.13a11.55,11.55,0,0,0-3.91-4.1c-4.16-2.4-7.66-.82-10.38,3.89-2.4,4.16-1.95,8.66,2.14,11a9.89,9.89,0,0,0,5.42,1.33Z"/><path class="cls-3" d="M107,287.91l6.51,3.76-14,24.17L93,312.09Z"/><path class="cls-3" d="M117.88,294.19l14.82,8.56-2.76,4.78-8.45-4.88-2.68,4.64,8,4.64-2.76,4.78-8-4.64-3,5.19L122,322.4l-2.76,4.78-15.28-8.82Z"/><path class="cls-3" d="M137.17,311.89l-5.19-3,2.84-4.92,16.9,9.76-2.84,4.92-5.2-3L132.57,334.9l-6.51-3.76Z"/><path class="cls-3" d="M150.67,333.63l1.57-19.6,7.41,4.28-2,11.2.07,0,8.51-7.46,7.17,4.14-16.19,11.16-5.08,8.79-6.51-3.76Z"/><path class="cls-3" d="M190,72.66V61.91c0-8.2,5.48-12.8,13.8-12.8,9.67,0,14.11,5.12,14.11,14v9.59Zm22.55-7.51V63.51c0-4.32-3.08-6.48-8.47-6.48-7.16,0-8.56,3.44-8.56,7.52v.6Z"/><path class="cls-3" d="M190,45.26V37.75h27.91v7.51Z"/><path class="cls-3" d="M201.73,20.87V10H216.8a21.19,21.19,0,0,1,1.56,8.44c0,8.59-5,15.07-14.27,15.07-8.44,0-14.6-5-14.6-15.43a21.88,21.88,0,0,1,1.12-7.24l6,.4A11.49,11.49,0,0,0,195,17.39c0,5.8,3.68,8.39,9.12,8.39s8.55-2.75,8.55-6.27a4.92,4.92,0,0,0-.48-2.44h-5.27v3.8Z"/><path class="cls-3" d="M190,5.3V-2.21h27.91V5.3Z"/><path class="cls-3" d="M365,20.33a14.63,14.63,0,0,0-6.31,1.7c-2.46,1.42-2.7,3-1.82,4.52s2.25,1.42,4.54,1.07l1.74-.27c4.88-.74,7.34.71,9.31,4.14,2.64,4.57.47,9.29-4.65,12.25a19.46,19.46,0,0,1-6.66,2.55l-2.46-4.91a13.68,13.68,0,0,0,5.69-1.66c1.94-1.12,2.65-2.6,1.79-4.09-.72-1.25-1.66-1.44-4.37-1.17l-3.67.36c-2.76.26-5.54-.17-7.62-3.77-3.06-5.3-.81-10.2,4.83-13.46a28.54,28.54,0,0,1,7-2.78Z"/><path class="cls-3" d="M325.47,36.09a23.76,23.76,0,0,1,5.42-4.38c7-4.06,14.47-2.77,19.37,5.72,4.12,7.13,3,14.69-4.9,19.27A17.45,17.45,0,0,1,338.87,59l-2.74-5.54a11.38,11.38,0,0,0,5.51-1.33c4.16-2.4,4.54-6.22,1.82-10.93-2.4-4.16-6.52-6-10.61-3.66a9.89,9.89,0,0,0-3.86,4Z"/><path class="cls-3" d="M316,54,321.08,51l-5.68-9.83,6.51-3.76,14,24.17-6.51,3.76L324,56.1,318.94,59l5.36,9.28-6.51,3.76-14-24.17,6.51-3.76Z"/><path class="cls-3" d="M303.65,80.78c-5.26,3-12.77,2.66-17.95-6.31s-1.75-15.66,3.51-18.7,12.78-2.67,18,6.31S308.92,77.74,303.65,80.78ZM292,60.37l0,0c-2.74,1.58-2.27,5.42.49,10.2s5.85,7.11,8.59,5.53,2.26-5.52-.45-10.23S294.7,58.79,292,60.37Z"/><path class="cls-3" d="M279.27,94.86c-5.27,3-12.78,2.66-18-6.31s-1.75-15.66,3.52-18.7,12.77-2.67,17.95,6.31S284.53,91.82,279.27,94.86ZM267.58,74.45l0,0c-2.73,1.58-2.27,5.42.49,10.2s5.85,7.11,8.59,5.53,2.27-5.52-.45-10.23S270.31,72.87,267.58,74.45Z"/><path class="cls-3" d="M264.65,102.74l-6.51,3.76L247,87.24l-8,4.6-2.84-4.91,14.48-8.36Z"/><path class="cls-3" d="M190,310.77V300c0-8.19,5.48-12.79,13.8-12.79,9.67,0,14.11,5.12,14.11,13.95v9.6Zm22.55-7.52v-1.64c0-4.31-3.08-6.47-8.47-6.47-7.16,0-8.56,3.43-8.56,7.51v.6Z"/><path class="cls-3" d="M190,283.37v-7.52h27.91v7.52Z"/><path class="cls-3" d="M201.73,259V248.14H216.8a21.19,21.19,0,0,1,1.56,8.44c0,8.59-5,15.07-14.27,15.07-8.44,0-14.6-5-14.6-15.43a21.88,21.88,0,0,1,1.12-7.24l6,.4A11.49,11.49,0,0,0,195,255.5c0,5.79,3.68,8.39,9.12,8.39s8.55-2.76,8.55-6.27a4.92,4.92,0,0,0-.48-2.44h-5.27V259Z"/><path class="cls-3" d="M190,243.41v-7.52h27.91v7.52Z"/><path class="cls-3" d="M195.65,226.77v6H190V213.26h5.68v6h22.23v7.51Z"/><path class="cls-3" d="M212,196.82V205l5.92,1.8V214L190,204.73v-8.27l27.91-8.88v7.76Zm-16.31,3.84v.07l10.95,3v-5.51Z"/><path class="cls-3" d="M190,184.93v-7.52H212.2v-9.19h5.68v16.71Z"/><path class="cls-3" d="M238.5,150.19a14.67,14.67,0,0,0,4.63,4.61c2.46,1.42,4,.85,4.83-.67s.1-2.67-1.35-4.47l-1.1-1.38c-3.08-3.86-3-6.7-1.07-10.13,2.64-4.57,7.81-5.05,12.93-2.09a19.3,19.3,0,0,1,5.54,4.49l-3,4.58A13.67,13.67,0,0,0,255.6,141c-1.94-1.12-3.57-1-4.43.49-.72,1.24-.42,2.16,1.17,4.37l2.15,3c1.6,2.27,2.63,4.89.55,8.49-3.06,5.3-8.43,5.8-14.08,2.54a28.58,28.58,0,0,1-5.9-4.65Z"/><path class="cls-3" d="M278.54,148.28c5.26,3,8.7,9.73,3.52,18.7s-12.69,9.34-18,6.3-8.7-9.73-3.52-18.7S273.27,145.24,278.54,148.28ZM266.71,168.6l0,0c2.73,1.58,5.83-.74,8.59-5.52s3.22-8.62.48-10.2-5.9.79-8.62,5.5S264,167,266.71,168.6Z"/><path class="cls-3" d="M296.3,190.63a24.31,24.31,0,0,1-6.5-2.51c-7-4.06-9.63-11.15-4.73-19.63,4.12-7.14,11.21-10,19.14-5.39a17.51,17.51,0,0,1,5.21,4.48L306,172.72a11.47,11.47,0,0,0-3.91-4.11c-4.15-2.4-7.65-.81-10.37,3.9-2.4,4.15-1.95,8.66,2.13,11a10,10,0,0,0,5.42,1.33Z"/><path class="cls-3" d="M313.22,168.85l6.51,3.76-14,24.18L299.26,193Z"/><path class="cls-3" d="M324.09,175.13l14.83,8.56-2.76,4.78-8.45-4.88L325,188.23l8,4.64-2.75,4.78-8-4.64-3,5.2,8.9,5.14-2.76,4.78-15.27-8.82Z"/><path class="cls-3" d="M343.39,192.83l-5.2-3,2.84-4.92,16.91,9.76-2.84,4.92-5.2-3-11.12,19.26-6.51-3.76Z"/><path class="cls-3" d="M356.89,214.57l1.57-19.6,7.41,4.28-2,11.2.07,0,8.51-7.46,7.17,4.14L363.4,218.33l-5.08,8.8-6.51-3.76Z"/><path class="cls-3" d="M365,258.44a14.63,14.63,0,0,0-6.31,1.7c-2.46,1.42-2.7,3-1.82,4.52s2.25,1.42,4.54,1.07l1.74-.27c4.88-.74,7.33.71,9.31,4.14,2.64,4.57.47,9.29-4.65,12.25a19.54,19.54,0,0,1-6.66,2.55l-2.46-4.91a13.67,13.67,0,0,0,5.68-1.67c1.94-1.12,2.66-2.59,1.8-4.08-.72-1.25-1.66-1.44-4.37-1.17l-3.67.36c-2.76.26-5.54-.17-7.62-3.77-3.06-5.3-.81-10.2,4.83-13.46a28.25,28.25,0,0,1,7-2.78Z"/><path class="cls-3" d="M325.47,274.19a24,24,0,0,1,5.42-4.37c7-4.06,14.47-2.77,19.37,5.72,4.12,7.13,3,14.69-4.9,19.27a17.5,17.5,0,0,1-6.49,2.27l-2.74-5.54a11.53,11.53,0,0,0,5.51-1.33c4.16-2.4,4.54-6.22,1.82-10.93-2.4-4.16-6.53-6-10.61-3.67a9.89,9.89,0,0,0-3.86,4Z"/><path class="cls-3" d="M316,292.07l5.06-2.92-5.68-9.83,6.51-3.76,14,24.17-6.51,3.76L324,294.21l-5.06,2.92,5.36,9.28-6.51,3.76-14-24.18,6.51-3.75Z"/><path class="cls-3" d="M303.65,318.89c-5.26,3-12.78,2.66-17.95-6.31s-1.75-15.66,3.51-18.7,12.78-2.67,18,6.3S308.92,315.85,303.65,318.89ZM292,298.48l0,0c-2.74,1.58-2.27,5.42.48,10.2s5.86,7.1,8.6,5.53,2.26-5.52-.46-10.23S294.7,296.9,292,298.48Z"/><path class="cls-3" d="M279.26,333c-5.26,3-12.77,2.66-17.95-6.31S259.56,311,264.83,308s12.77-2.67,17.95,6.3S284.53,329.93,279.26,333Zm-11.68-20.41,0,0c-2.74,1.58-2.27,5.42.49,10.2s5.85,7.1,8.59,5.52,2.27-5.51-.45-10.22S270.31,311,267.58,312.56Z"/><path class="cls-3" d="M264.65,340.85l-6.52,3.76L247,325.35l-8,4.6L236.21,325l14.48-8.35Z"/><path class="cls-3" d="M396.18,191.72V181c0-8.2,5.48-12.8,13.8-12.8,9.68,0,14.12,5.12,14.12,14v9.6Zm22.56-7.52v-1.64c0-4.32-3.08-6.48-8.48-6.48-7.16,0-8.56,3.44-8.56,7.52v.6Z"/><path class="cls-3" d="M396.18,164.32V156.8H424.1v7.52Z"/><path class="cls-3" d="M407.94,139.92V129.08H423a21.19,21.19,0,0,1,1.56,8.44c0,8.6-5,15.08-14.28,15.08-8.44,0-14.6-5-14.6-15.44a21.88,21.88,0,0,1,1.12-7.24l6,.4a11.49,11.49,0,0,0-1.56,6.12c0,5.8,3.68,8.4,9.12,8.4s8.56-2.76,8.56-6.28a4.92,4.92,0,0,0-.48-2.44h-5.28v3.8Z"/><path class="cls-3" d="M396.18,124.36v-7.52H424.1v7.52Z"/><path class="cls-3" d="M401.86,107.72v6h-5.68V94.2h5.68v6H424.1v7.52Z"/><path class="cls-3" d="M418.18,77.76V86l5.92,1.8V95l-27.92-9.28V77.4l27.92-8.88v7.76ZM401.86,81.6v.08l11,3V79.16Z"/><path class="cls-3" d="M396.18,65.88V58.36h22.24v-9.2h5.68V65.88Z"/><path class="cls-3" d="M444.71,31.13a14.73,14.73,0,0,0,4.64,4.62c2.46,1.42,3.94.84,4.82-.68s.11-2.66-1.34-4.47l-1.1-1.38c-3.09-3.85-3.06-6.7-1.08-10.13,2.64-4.57,7.81-5.05,12.94-2.09a19.26,19.26,0,0,1,5.53,4.49l-3,4.58A13.77,13.77,0,0,0,461.82,22c-1.94-1.12-3.58-1-4.44.49-.72,1.25-.41,2.16,1.17,4.37l2.15,3c1.61,2.27,2.63,4.89.55,8.49-3.06,5.3-8.43,5.81-14.07,2.55a29,29,0,0,1-5.91-4.66Z"/><path class="cls-3" d="M484.75,29.22c5.27,3,8.7,9.73,3.52,18.7s-12.69,9.35-17.95,6.31-8.7-9.74-3.52-18.71S479.49,26.18,484.75,29.22ZM472.93,49.55l0,0c2.74,1.58,5.83-.75,8.59-5.53s3.23-8.62.49-10.2-5.91.79-8.63,5.5S470.19,48,472.93,49.55Z"/><path class="cls-3" d="M502.52,71.57a24,24,0,0,1-6.5-2.5c-7-4.06-9.63-11.15-4.73-19.64,4.11-7.13,11.2-10,19.13-5.39a17.58,17.58,0,0,1,5.22,4.49l-3.43,5.13a11.55,11.55,0,0,0-3.91-4.1c-4.16-2.4-7.66-.82-10.38,3.89-2.4,4.16-1.95,8.66,2.14,11a9.9,9.9,0,0,0,5.42,1.33Z"/><path class="cls-3" d="M519.43,49.8l6.51,3.76L512,77.73,505.48,74Z"/><path class="cls-3" d="M530.31,56.08l14.82,8.55-2.76,4.78-8.45-4.88-2.68,4.65,8,4.64-2.76,4.78-8-4.64-3,5.19,8.91,5.14-2.76,4.78-15.28-8.82Z"/><path class="cls-3" d="M549.6,73.77l-5.19-3,2.84-4.91,16.9,9.75-2.84,4.92-5.19-3L545,96.79,538.49,93Z"/><path class="cls-3" d="M563.1,95.51l1.57-19.59,7.42,4.28-2,11.2.07,0L578.63,84l7.17,4.14L569.61,99.27l-5.07,8.8L558,104.31Z"/><path class="cls-3" d="M571.22,139.38a14.68,14.68,0,0,0-6.32,1.71c-2.45,1.42-2.7,3-1.82,4.52s2.25,1.42,4.54,1.07l1.74-.27c4.89-.74,7.34.71,9.32,4.14,2.64,4.57.47,9.28-4.66,12.24a19.26,19.26,0,0,1-6.66,2.55l-2.46-4.9a13.71,13.71,0,0,0,5.69-1.67c1.94-1.12,2.66-2.59,1.8-4.08-.72-1.25-1.67-1.45-4.37-1.17l-3.67.36c-2.77.25-5.55-.17-7.63-3.77-3.06-5.3-.81-10.2,4.84-13.46a28.79,28.79,0,0,1,7-2.79Z"/><path class="cls-3" d="M531.68,155.14a24.2,24.2,0,0,1,5.42-4.37c7-4.06,14.47-2.77,19.37,5.72,4.12,7.13,3,14.69-4.9,19.26a17.55,17.55,0,0,1-6.49,2.28l-2.73-5.54a11.55,11.55,0,0,0,5.51-1.33c4.15-2.4,4.53-6.22,1.81-10.93-2.4-4.16-6.52-6-10.61-3.67a10,10,0,0,0-3.86,4Z"/><path class="cls-3" d="M522.23,173l5.06-2.92-5.68-9.84,6.51-3.76,14,24.18-6.51,3.76-5.36-9.28-5.06,2.92,5.36,9.28L524,191.12l-14-24.18,6.52-3.76Z"/><path class="cls-3" d="M509.86,199.83c-5.26,3-12.77,2.67-17.95-6.3s-1.75-15.66,3.52-18.7,12.77-2.67,17.95,6.3S515.13,196.79,509.86,199.83Zm-11.68-20.4,0,0c-2.73,1.58-2.27,5.42.49,10.2s5.85,7.1,8.59,5.52,2.27-5.51-.45-10.22S500.91,177.85,498.18,179.43Z"/><path class="cls-3" d="M485.48,213.91c-5.27,3-12.78,2.67-18-6.3S465.78,192,471,188.91s12.78-2.67,18,6.3S490.74,210.87,485.48,213.91Zm-11.69-20.4,0,0c-2.73,1.58-2.27,5.42.49,10.2s5.86,7.1,8.59,5.52,2.27-5.51-.45-10.22S476.52,191.93,473.79,193.51Z"/><path class="cls-3" d="M470.86,221.8l-6.51,3.76L453.23,206.3l-8,4.6L442.42,206l14.48-8.36Z"/><path class="cls-3" d="M396.18,362.47V355H424.1v7.52Z"/><path class="cls-3" d="M401.86,345.83v6h-5.68V332.31h5.68v6H424.1v7.52Z"/><path class="cls-3" d="M418.18,315.87v8.2l5.92,1.8v7.2l-27.92-9.28v-8.28l27.92-8.88v7.76Zm-16.32,3.84v.08l11,3v-5.52Z"/><path class="cls-3" d="M396.18,304v-7.52h22.24v-9.2h5.68V304Z"/><path class="cls-3" d="M444.71,269.24a14.63,14.63,0,0,0,4.64,4.62c2.46,1.42,3.94.84,4.82-.68s.11-2.66-1.34-4.47l-1.1-1.37c-3.09-3.86-3.06-6.71-1.08-10.14,2.64-4.57,7.81-5,12.94-2.09a19.26,19.26,0,0,1,5.53,4.49l-3,4.59a13.79,13.79,0,0,0-4.29-4.1c-1.94-1.12-3.58-1-4.44.49-.72,1.25-.42,2.16,1.17,4.37l2.15,3c1.61,2.26,2.63,4.89.55,8.49-3.06,5.3-8.43,5.8-14.07,2.54a28.62,28.62,0,0,1-5.91-4.66Z"/><path class="cls-3" d="M484.75,267.33c5.27,3,8.7,9.73,3.52,18.7s-12.69,9.35-18,6.31-8.69-9.73-3.51-18.7S479.49,264.29,484.75,267.33Zm-11.82,20.33,0,0c2.74,1.58,5.83-.75,8.59-5.52s3.22-8.63.49-10.21-5.91.79-8.63,5.51S470.19,286.08,472.93,287.66Z"/><path class="cls-3" d="M502.52,309.68a23.72,23.72,0,0,1-6.5-2.5c-7-4.06-9.63-11.15-4.74-19.64,4.12-7.13,11.21-10,19.14-5.39a17.58,17.58,0,0,1,5.22,4.49l-3.43,5.13a11.55,11.55,0,0,0-3.91-4.1c-4.16-2.4-7.66-.82-10.38,3.89-2.4,4.16-1.95,8.66,2.14,11a9.9,9.9,0,0,0,5.42,1.33Z"/><path class="cls-3" d="M519.43,287.91l6.51,3.76-14,24.17-6.51-3.76Z"/><path class="cls-3" d="M530.31,294.19l14.82,8.56-2.76,4.78-8.45-4.88-2.68,4.64,8,4.64-2.76,4.78-8-4.64-3,5.19,8.9,5.14-2.75,4.78-15.28-8.82Z"/><path class="cls-3" d="M549.6,311.89l-5.19-3,2.84-4.92,16.9,9.76-2.84,4.91-5.19-3L545,334.9l-6.51-3.76Z"/><path class="cls-3" d="M563.1,333.63l1.57-19.6,7.41,4.28-2,11.2.07,0,8.51-7.46,7.17,4.14-16.19,11.15-5.08,8.8L558,342.42Z"/><path class="cls-3" d="M602.4,72.66V61.91c0-8.2,5.48-12.8,13.8-12.8,9.67,0,14.11,5.12,14.11,14v9.59ZM625,65.15V63.51c0-4.32-3.08-6.48-8.47-6.48-7.16,0-8.56,3.44-8.56,7.52v.6Z"/><path class="cls-3" d="M602.4,45.26V37.75h27.91v7.51Z"/><path class="cls-3" d="M614.16,20.87V10h15.07a21.19,21.19,0,0,1,1.56,8.44c0,8.59-5,15.07-14.27,15.07-8.44,0-14.6-5-14.6-15.43A21.88,21.88,0,0,1,603,10.87l6,.4a11.49,11.49,0,0,0-1.56,6.12c0,5.8,3.68,8.39,9.12,8.39s8.55-2.75,8.55-6.27a4.92,4.92,0,0,0-.48-2.44h-5.28v3.8Z"/><path class="cls-3" d="M602.4,5.3V-2.21h27.91V5.3Z"/><path class="cls-3" d="M777.43,20.33a14.63,14.63,0,0,0-6.31,1.7c-2.46,1.42-2.7,3-1.82,4.52s2.25,1.42,4.54,1.07l1.74-.26c4.88-.75,7.34.7,9.32,4.13,2.64,4.57.46,9.29-4.66,12.25a19.26,19.26,0,0,1-6.66,2.55l-2.46-4.91a13.68,13.68,0,0,0,5.69-1.66c1.94-1.12,2.65-2.6,1.79-4.09-.72-1.25-1.66-1.44-4.37-1.17l-3.67.36c-2.76.26-5.54-.16-7.62-3.77-3.06-5.3-.81-10.2,4.83-13.46a28.54,28.54,0,0,1,7-2.78Z"/><path class="cls-3" d="M737.9,36.09a23.76,23.76,0,0,1,5.42-4.38c7-4.06,14.47-2.77,19.37,5.72,4.12,7.14,3,14.69-4.9,19.27A17.45,17.45,0,0,1,751.3,59l-2.74-5.53a11.59,11.59,0,0,0,5.52-1.34c4.15-2.4,4.53-6.22,1.81-10.93-2.4-4.16-6.52-6-10.61-3.66a9.89,9.89,0,0,0-3.86,4Z"/><path class="cls-3" d="M728.45,54,733.51,51l-5.68-9.83,6.51-3.76,14,24.17-6.51,3.76-5.36-9.28L731.37,59l5.36,9.28-6.51,3.76-14-24.17,6.51-3.76Z"/><path class="cls-3" d="M716.08,80.78c-5.26,3-12.77,2.67-18-6.31s-1.75-15.66,3.52-18.7,12.77-2.66,18,6.31S721.35,77.74,716.08,80.78ZM704.39,60.37l0,0c-2.74,1.58-2.27,5.43.49,10.2s5.85,7.11,8.59,5.53,2.27-5.51-.45-10.22S707.13,58.79,704.39,60.37Z"/><path class="cls-3" d="M691.7,94.86c-5.27,3-12.78,2.67-18-6.31s-1.75-15.66,3.52-18.7,12.78-2.66,18,6.31S697,91.82,691.7,94.86ZM680,74.45l0,0c-2.73,1.58-2.27,5.43.49,10.2s5.85,7.11,8.59,5.53,2.27-5.51-.45-10.22S682.74,72.87,680,74.45Z"/><path class="cls-3" d="M677.08,102.74l-6.51,3.76L659.45,87.25l-8,4.59-2.84-4.91,14.48-8.36Z"/><path class="cls-3" d="M602.4,310.77V300c0-8.19,5.48-12.79,13.8-12.79,9.67,0,14.11,5.12,14.11,13.95v9.6ZM625,303.25v-1.64c0-4.31-3.08-6.47-8.47-6.47-7.16,0-8.56,3.43-8.56,7.51v.6Z"/><path class="cls-3" d="M602.4,283.37v-7.52h27.91v7.52Z"/><path class="cls-3" d="M614.16,259V248.14h15.07a21.19,21.19,0,0,1,1.56,8.44c0,8.59-5,15.07-14.27,15.07-8.44,0-14.6-5-14.6-15.43A21.88,21.88,0,0,1,603,249l6,.4a11.49,11.49,0,0,0-1.56,6.12c0,5.79,3.68,8.39,9.12,8.39s8.55-2.76,8.55-6.27a4.92,4.92,0,0,0-.48-2.44h-5.28V259Z"/><path class="cls-3" d="M602.4,243.41v-7.52h27.91v7.52Z"/><path class="cls-3" d="M608.08,226.77v6H602.4V213.26h5.68v6h22.23v7.51Z"/><path class="cls-3" d="M624.39,196.82V205l5.92,1.8V214l-27.91-9.28v-8.27l27.91-8.88v7.76Zm-16.31,3.84v.07l10.95,3v-5.51Z"/><path class="cls-3" d="M602.4,184.93v-7.52h22.23v-9.19h5.68v16.71Z"/><path class="cls-3" d="M650.93,150.19a14.67,14.67,0,0,0,4.63,4.61c2.46,1.42,4,.85,4.83-.68s.1-2.66-1.35-4.47l-1.1-1.37c-3.08-3.86-3.05-6.71-1.07-10.13,2.64-4.58,7.81-5.05,12.93-2.09a19.29,19.29,0,0,1,5.54,4.48l-3,4.59A13.62,13.62,0,0,0,668,141c-1.94-1.12-3.58-1-4.44.48-.72,1.25-.42,2.17,1.17,4.37l2.15,3c1.6,2.27,2.63,4.89.55,8.49-3.06,5.3-8.43,5.8-14.08,2.54a28.58,28.58,0,0,1-5.9-4.65Z"/><path class="cls-3" d="M691,148.28c5.26,3,8.7,9.73,3.52,18.7s-12.69,9.34-18,6.3-8.7-9.73-3.52-18.7S685.71,145.24,691,148.28ZM679.14,168.6l0,0c2.73,1.58,5.83-.74,8.59-5.52s3.22-8.62.48-10.2-5.9.79-8.62,5.5S676.4,167,679.14,168.6Z"/><path class="cls-3" d="M708.73,190.63a24.11,24.11,0,0,1-6.49-2.51c-7-4.06-9.64-11.15-4.74-19.63,4.12-7.14,11.21-10,19.14-5.39a17.36,17.36,0,0,1,5.21,4.48l-3.43,5.14a11.52,11.52,0,0,0-3.9-4.11c-4.16-2.4-7.66-.82-10.38,3.89-2.4,4.16-1.95,8.67,2.13,11a10,10,0,0,0,5.43,1.33Z"/><path class="cls-3" d="M725.65,168.85l6.51,3.76-14,24.18L711.69,193Z"/><path class="cls-3" d="M736.53,175.13l14.82,8.56-2.76,4.78-8.45-4.88-2.68,4.64,8,4.64-2.76,4.78-8-4.64-3,5.2,8.9,5.14-2.76,4.78-15.27-8.82Z"/><path class="cls-3" d="M755.82,192.83l-5.19-3,2.83-4.92,16.91,9.76-2.84,4.92-5.2-3-11.12,19.26-6.51-3.76Z"/><path class="cls-3" d="M769.32,214.57l1.57-19.6,7.41,4.28-2,11.2.07,0,8.51-7.46,7.17,4.14-16.19,11.16-5.08,8.8-6.51-3.76Z"/><path class="cls-3" d="M777.43,258.44a14.63,14.63,0,0,0-6.31,1.7c-2.46,1.42-2.7,3-1.82,4.52s2.25,1.42,4.54,1.07l1.74-.27c4.88-.74,7.33.71,9.31,4.14,2.64,4.57.47,9.29-4.65,12.25a19.54,19.54,0,0,1-6.66,2.55l-2.46-4.91a13.68,13.68,0,0,0,5.69-1.66c1.94-1.12,2.65-2.6,1.79-4.09-.72-1.25-1.66-1.44-4.37-1.17l-3.67.36c-2.76.26-5.54-.17-7.62-3.77-3.06-5.3-.81-10.2,4.83-13.46a28.66,28.66,0,0,1,7-2.78Z"/><path class="cls-3" d="M737.9,274.2a23.76,23.76,0,0,1,5.42-4.38c7-4.06,14.47-2.77,19.37,5.72,4.12,7.13,3,14.69-4.9,19.27a17.5,17.5,0,0,1-6.49,2.27l-2.74-5.54a11.41,11.41,0,0,0,5.51-1.33c4.16-2.4,4.54-6.22,1.82-10.93-2.4-4.16-6.52-6-10.61-3.66a9.89,9.89,0,0,0-3.86,4Z"/><path class="cls-3" d="M728.45,292.07l5.06-2.92-5.68-9.83,6.51-3.76,14,24.17-6.51,3.76-5.36-9.28-5.06,2.92,5.36,9.28-6.51,3.76-14-24.17,6.51-3.76Z"/><path class="cls-3" d="M716.08,318.89c-5.26,3-12.78,2.66-18-6.31s-1.75-15.66,3.51-18.7,12.78-2.66,18,6.31S721.35,315.85,716.08,318.89Zm-11.69-20.41,0,0c-2.74,1.58-2.27,5.42.49,10.2s5.85,7.11,8.59,5.53,2.26-5.51-.46-10.22S707.13,296.9,704.39,298.48Z"/><path class="cls-3" d="M691.69,333c-5.26,3-12.77,2.66-18-6.31S672,311,677.26,308s12.77-2.67,18,6.31S697,329.93,691.69,333ZM680,312.56l0,0c-2.73,1.58-2.27,5.42.49,10.2s5.85,7.11,8.59,5.53,2.27-5.52-.45-10.23S682.74,311,680,312.56Z"/><path class="cls-3" d="M677.08,340.85l-6.51,3.76-11.12-19.26-8,4.6L648.64,325l14.48-8.36Z"/><path class="cls-3" d="M808.61,191.72V181c0-8.2,5.48-12.8,13.8-12.8,9.68,0,14.12,5.12,14.12,14v9.6Zm22.56-7.52v-1.64c0-4.32-3.08-6.48-8.48-6.48-7.16,0-8.56,3.44-8.56,7.52v.6Z"/><path class="cls-3" d="M808.61,164.32V156.8h27.92v7.52Z"/><path class="cls-3" d="M820.37,139.92V129.08h15.08a21.19,21.19,0,0,1,1.56,8.44c0,8.6-5,15.08-14.28,15.08-8.44,0-14.6-5-14.6-15.44a21.88,21.88,0,0,1,1.12-7.24l6,.4a11.49,11.49,0,0,0-1.56,6.12c0,5.8,3.68,8.4,9.12,8.4s8.56-2.76,8.56-6.28a4.92,4.92,0,0,0-.48-2.44h-5.28v3.8Z"/><path class="cls-3" d="M808.61,124.36v-7.52h27.92v7.52Z"/><path class="cls-3" d="M814.29,107.72v6h-5.68V94.2h5.68v6h22.24v7.52Z"/><path class="cls-3" d="M830.61,77.76V86l5.92,1.8V95l-27.92-9.28V77.4l27.92-8.88v7.76ZM814.29,81.6v.08l11,3V79.16Z"/><path class="cls-3" d="M808.61,65.88V58.36h22.24v-9.2h5.68V65.88Z"/><path class="cls-3" d="M857.14,31.13a14.73,14.73,0,0,0,4.64,4.62c2.46,1.42,3.94.84,4.82-.68s.11-2.67-1.34-4.47l-1.1-1.38c-3.09-3.86-3.06-6.7-1.08-10.13C865.72,14.52,870.89,14,876,17a19.26,19.26,0,0,1,5.53,4.49l-3,4.58A13.77,13.77,0,0,0,874.25,22c-1.94-1.12-3.58-1-4.44.49-.72,1.24-.41,2.16,1.17,4.37l2.15,3c1.61,2.27,2.63,4.89.55,8.49-3.06,5.3-8.43,5.8-14.07,2.55a29,29,0,0,1-5.91-4.66Z"/><path class="cls-3" d="M897.18,29.22c5.27,3,8.7,9.73,3.52,18.7s-12.69,9.34-18,6.3-8.7-9.73-3.52-18.7S891.92,26.18,897.18,29.22ZM885.36,49.54l0,0c2.74,1.58,5.83-.74,8.59-5.52s3.23-8.62.49-10.2-5.91.79-8.63,5.5S882.62,48,885.36,49.54Z"/><path class="cls-3" d="M915,71.57a24.51,24.51,0,0,1-6.5-2.5c-7-4.06-9.63-11.15-4.73-19.64,4.12-7.14,11.2-10,19.13-5.39a17.43,17.43,0,0,1,5.22,4.49l-3.43,5.13a11.55,11.55,0,0,0-3.91-4.1c-4.16-2.4-7.66-.82-10.38,3.89-2.39,4.15-2,8.66,2.14,11a10,10,0,0,0,5.42,1.33Z"/><path class="cls-3" d="M931.86,49.79l6.51,3.76-14,24.18L917.91,74Z"/><path class="cls-3" d="M942.74,56.07l14.82,8.56-2.75,4.78-8.46-4.88-2.68,4.64,8,4.64L949,78.59l-8-4.64-3,5.2,8.91,5.14-2.76,4.78-15.28-8.82Z"/><path class="cls-3" d="M962,73.77l-5.2-3,2.84-4.92,16.9,9.76-2.84,4.92-5.19-3L957.43,96.79,950.92,93Z"/><path class="cls-3" d="M975.53,95.51l1.57-19.6,7.42,4.28-2,11.21.07,0L991.06,84l7.17,4.14L982.05,99.27l-5.08,8.8-6.52-3.76Z"/><path class="cls-3" d="M983.65,139.38a14.71,14.71,0,0,0-6.32,1.71c-2.45,1.42-2.7,3-1.82,4.52s2.25,1.42,4.54,1.07l1.74-.27c4.89-.74,7.34.71,9.32,4.14,2.64,4.57.47,9.29-4.66,12.25a19.25,19.25,0,0,1-6.66,2.54l-2.46-4.9a13.71,13.71,0,0,0,5.69-1.67c1.94-1.12,2.66-2.59,1.8-4.08-.72-1.25-1.67-1.44-4.37-1.17l-3.67.36c-2.77.26-5.55-.17-7.63-3.77-3.06-5.3-.81-10.2,4.84-13.46a28.79,28.79,0,0,1,7-2.79Z"/><path class="cls-3" d="M944.11,155.14a24.43,24.43,0,0,1,5.42-4.37c7-4.06,14.47-2.77,19.37,5.72,4.12,7.13,3,14.69-4.9,19.27a17.45,17.45,0,0,1-6.49,2.27l-2.73-5.54a11.55,11.55,0,0,0,5.51-1.33c4.15-2.4,4.53-6.22,1.81-10.93-2.4-4.16-6.52-6-10.61-3.67a10,10,0,0,0-3.86,4Z"/><path class="cls-3" d="M934.67,173l5.05-2.92L934,160.26l6.51-3.75,14,24.17L948,184.44l-5.36-9.28-5.06,2.92,5.36,9.28-6.51,3.76-13.95-24.18,6.51-3.76Z"/><path class="cls-3" d="M922.3,199.84c-5.27,3-12.78,2.66-18-6.31s-1.75-15.66,3.52-18.7,12.77-2.67,17.95,6.3S927.56,196.8,922.3,199.84Zm-11.69-20.41,0,0c-2.73,1.58-2.27,5.42.49,10.2s5.85,7.1,8.59,5.52,2.27-5.51-.45-10.22S913.34,177.85,910.61,179.43Z"/><path class="cls-3" d="M897.91,213.92c-5.27,3-12.78,2.66-18-6.31s-1.74-15.66,3.52-18.7,12.78-2.67,18,6.3S903.17,210.88,897.91,213.92Zm-11.69-20.41,0,0c-2.73,1.58-2.27,5.42.49,10.2s5.86,7.1,8.59,5.52,2.27-5.51-.45-10.22S889,191.93,886.22,193.51Z"/><path class="cls-3" d="M883.29,221.8l-6.51,3.76L865.66,206.3l-8,4.6L854.86,206l14.47-8.36Z"/><path class="cls-3" d="M808.61,362.47V355h27.92v7.52Z"/><path class="cls-3" d="M814.29,345.83v6h-5.68V332.31h5.68v6h22.24v7.52Z"/><path class="cls-3" d="M830.61,315.87v8.2l5.92,1.8v7.2l-27.92-9.28v-8.28l27.92-8.88v7.76Zm-16.32,3.84v.08l11,3v-5.52Z"/><path class="cls-3" d="M808.61,304v-7.52h22.24v-9.2h5.68V304Z"/><path class="cls-3" d="M857.15,269.24a14.47,14.47,0,0,0,4.63,4.62c2.46,1.42,3.94.84,4.82-.68s.11-2.66-1.34-4.47l-1.1-1.37c-3.09-3.86-3.06-6.71-1.08-10.14,2.64-4.57,7.81-5,12.94-2.09a19.3,19.3,0,0,1,5.54,4.49l-3,4.59a13.68,13.68,0,0,0-4.29-4.1c-1.94-1.12-3.58-1-4.44.49-.72,1.25-.41,2.16,1.17,4.37l2.15,3c1.61,2.26,2.63,4.88.55,8.49-3.06,5.3-8.43,5.8-14.07,2.54a28.62,28.62,0,0,1-5.91-4.66Z"/><path class="cls-3" d="M897.18,267.33c5.27,3,8.7,9.73,3.52,18.7s-12.69,9.35-18,6.31-8.7-9.73-3.52-18.7S891.92,264.29,897.18,267.33Zm-11.82,20.33,0,0c2.74,1.58,5.83-.75,8.59-5.53s3.23-8.62.49-10.2-5.91.79-8.63,5.5S882.62,286.08,885.36,287.66Z"/><path class="cls-3" d="M915,309.68a23.85,23.85,0,0,1-6.5-2.5c-7-4.06-9.63-11.15-4.73-19.64,4.12-7.13,11.2-10,19.13-5.39a17.44,17.44,0,0,1,5.22,4.49l-3.43,5.13a11.55,11.55,0,0,0-3.91-4.1c-4.16-2.4-7.65-.82-10.37,3.89-2.4,4.16-2,8.66,2.13,11a9.9,9.9,0,0,0,5.42,1.33Z"/><path class="cls-3" d="M931.86,287.91l6.52,3.76-14,24.17-6.51-3.76Z"/><path class="cls-3" d="M942.74,294.19l14.83,8.56-2.76,4.78-8.46-4.88-2.67,4.64,8,4.64L949,316.71l-8-4.64-3,5.19,8.9,5.14-2.76,4.78-15.28-8.82Z"/><path class="cls-3" d="M962,311.89l-5.2-3,2.84-4.92,16.9,9.76-2.84,4.91-5.19-3L957.43,334.9l-6.51-3.76Z"/><path class="cls-3" d="M975.53,333.62,977.11,314l7.41,4.28-2,11.2.07,0,8.51-7.46,7.17,4.14-16.18,11.15-5.08,8.8-6.51-3.76Z"/><path class="cls-3" d="M1014.83,72.66V61.91c0-8.2,5.48-12.8,13.79-12.8,9.68,0,14.12,5.12,14.12,14v9.59Zm22.55-7.51V63.51c0-4.32-3.08-6.48-8.48-6.48-7.15,0-8.55,3.44-8.55,7.52v.6Z"/><path class="cls-3" d="M1014.83,45.26V37.75h27.91v7.51Z"/><path class="cls-3" d="M1026.59,20.87V10h15.07a21.19,21.19,0,0,1,1.56,8.44c0,8.59-5,15.07-14.28,15.07-8.43,0-14.59-5-14.59-15.43a21.88,21.88,0,0,1,1.12-7.24l6,.4a11.49,11.49,0,0,0-1.56,6.12c0,5.8,3.68,8.39,9.11,8.39s8.56-2.75,8.56-6.27a4.92,4.92,0,0,0-.48-2.44h-5.28v3.8Z"/><path class="cls-3" d="M1014.83,5.3V-2.21h27.91V5.3Z"/><path class="cls-3" d="M1189.87,20.33a14.6,14.6,0,0,0-6.31,1.7c-2.46,1.42-2.71,3-1.83,4.52s2.25,1.42,4.54,1.07l1.74-.26c4.89-.75,7.34.7,9.32,4.13,2.64,4.57.47,9.29-4.66,12.25a19.26,19.26,0,0,1-6.66,2.55l-2.46-4.91a13.64,13.64,0,0,0,5.69-1.66c1.94-1.12,2.66-2.6,1.8-4.09-.72-1.25-1.67-1.44-4.37-1.17l-3.67.36c-2.76.26-5.55-.16-7.63-3.77-3.06-5.3-.81-10.2,4.84-13.46a28.66,28.66,0,0,1,7-2.78Z"/><path class="cls-3" d="M1150.33,36.09a24.2,24.2,0,0,1,5.42-4.38c7-4.06,14.47-2.76,19.37,5.72,4.12,7.14,3,14.69-4.9,19.27a17.45,17.45,0,0,1-6.49,2.27L1161,53.44a11.58,11.58,0,0,0,5.51-1.34c4.15-2.4,4.53-6.22,1.81-10.93-2.4-4.16-6.52-6-10.61-3.66a9.89,9.89,0,0,0-3.86,4Z"/><path class="cls-3" d="M1140.89,54l5-2.92-5.68-9.83,6.52-3.76,14,24.17-6.51,3.76-5.36-9.28-5,2.92,5.35,9.28-6.51,3.76-14-24.17,6.51-3.76Z"/><path class="cls-3" d="M1128.52,80.78c-5.27,3-12.78,2.67-18-6.3s-1.75-15.67,3.52-18.71,12.77-2.66,18,6.31S1133.78,77.74,1128.52,80.78Zm-11.69-20.41,0,0c-2.73,1.58-2.27,5.43.49,10.21s5.85,7.1,8.59,5.52,2.27-5.51-.45-10.22S1119.56,58.79,1116.83,60.37Z"/><path class="cls-3" d="M1104.13,94.86c-5.27,3-12.78,2.67-18-6.3s-1.74-15.67,3.52-18.71,12.78-2.66,18,6.31S1109.39,91.82,1104.13,94.86Zm-11.69-20.41,0,0c-2.74,1.58-2.28,5.43.48,10.21s5.86,7.1,8.59,5.52,2.27-5.51-.45-10.22S1095.18,72.87,1092.44,74.45Z"/><path class="cls-3" d="M1089.51,102.74,1083,106.5l-11.12-19.25-8,4.6-2.83-4.92,14.47-8.36Z"/><path class="cls-3" d="M1014.83,310.77V300c0-8.19,5.48-12.79,13.79-12.79,9.68,0,14.12,5.12,14.12,13.95v9.6Zm22.55-7.52v-1.64c0-4.31-3.08-6.47-8.48-6.47-7.15,0-8.55,3.43-8.55,7.51v.6Z"/><path class="cls-3" d="M1014.83,283.37v-7.52h27.91v7.52Z"/><path class="cls-3" d="M1026.59,259V248.14h15.07a21.19,21.19,0,0,1,1.56,8.44c0,8.59-5,15.07-14.28,15.07-8.43,0-14.59-5-14.59-15.43a21.88,21.88,0,0,1,1.12-7.24l6,.4a11.49,11.49,0,0,0-1.56,6.12c0,5.79,3.68,8.39,9.11,8.39s8.56-2.76,8.56-6.27a4.92,4.92,0,0,0-.48-2.44h-5.28V259Z"/><path class="cls-3" d="M1014.83,243.41v-7.52h27.91v7.52Z"/><path class="cls-3" d="M1020.51,226.77v6h-5.68V213.26h5.68v6h22.23v7.51Z"/><path class="cls-3" d="M1036.82,196.82V205l5.92,1.8V214l-27.91-9.28v-8.27l27.91-8.88v7.76Zm-16.31,3.84v.07l11,3v-5.51Z"/><path class="cls-3" d="M1014.83,184.93v-7.52h22.23v-9.19h5.68v16.71Z"/><path class="cls-3" d="M1063.36,150.19a14.67,14.67,0,0,0,4.63,4.61c2.46,1.42,4,.85,4.83-.68s.1-2.66-1.35-4.47l-1.1-1.37c-3.08-3.86-3-6.71-1.07-10.14,2.64-4.57,7.81-5,12.93-2.09a19.33,19.33,0,0,1,5.54,4.49l-3,4.59a13.62,13.62,0,0,0-4.28-4.09c-1.94-1.12-3.58-1-4.44.48-.72,1.25-.42,2.16,1.17,4.37l2.15,3c1.6,2.26,2.63,4.89.55,8.49-3.06,5.3-8.43,5.8-14.08,2.54a28.58,28.58,0,0,1-5.9-4.65Z"/><path class="cls-3" d="M1103.4,148.27c5.26,3,8.7,9.74,3.52,18.71s-12.69,9.34-18,6.3-8.69-9.73-3.52-18.7S1098.14,145.24,1103.4,148.27Zm-11.83,20.33,0,0c2.73,1.58,5.83-.74,8.59-5.52s3.22-8.62.49-10.2-5.91.79-8.63,5.5S1088.84,167,1091.57,168.6Z"/><path class="cls-3" d="M1121.16,190.63a24.11,24.11,0,0,1-6.49-2.51c-7-4.06-9.64-11.15-4.74-19.63,4.12-7.14,11.21-10,19.14-5.4a17.48,17.48,0,0,1,5.21,4.49l-3.42,5.14a11.66,11.66,0,0,0-3.91-4.11c-4.16-2.4-7.66-.82-10.38,3.89-2.4,4.16-2,8.67,2.13,11a10,10,0,0,0,5.43,1.32Z"/><path class="cls-3" d="M1138.08,168.85l6.51,3.76-14,24.18-6.51-3.76Z"/><path class="cls-3" d="M1149,175.13l14.82,8.56-2.76,4.78-8.45-4.88-2.68,4.64,8,4.64-2.76,4.78-8-4.64-3,5.2,8.9,5.13-2.76,4.78L1135,199.31Z"/><path class="cls-3" d="M1168.25,192.83l-5.19-3,2.84-4.92,16.9,9.76-2.84,4.92-5.2-3-11.12,19.25-6.51-3.75Z"/><path class="cls-3" d="M1181.75,214.57l1.57-19.6,7.41,4.28-2,11.2.07,0,8.51-7.46,7.17,4.14-16.19,11.16-5.08,8.79-6.51-3.76Z"/><path class="cls-3" d="M1189.86,258.44a14.63,14.63,0,0,0-6.31,1.7c-2.46,1.42-2.7,3-1.82,4.52s2.25,1.42,4.54,1.07l1.74-.26c4.88-.75,7.34.7,9.32,4.13,2.63,4.57.46,9.29-4.66,12.25a19.26,19.26,0,0,1-6.66,2.55l-2.46-4.91a13.68,13.68,0,0,0,5.69-1.66c1.94-1.12,2.65-2.6,1.79-4.09-.72-1.25-1.66-1.44-4.37-1.17l-3.67.36c-2.76.26-5.54-.16-7.62-3.77-3.06-5.3-.81-10.2,4.83-13.46a28.54,28.54,0,0,1,7-2.78Z"/><path class="cls-3" d="M1150.33,274.2a23.76,23.76,0,0,1,5.42-4.38c7-4.06,14.47-2.77,19.37,5.72,4.12,7.14,3,14.69-4.9,19.27a17.45,17.45,0,0,1-6.49,2.27l-2.74-5.53a11.54,11.54,0,0,0,5.51-1.34c4.16-2.4,4.54-6.22,1.82-10.93-2.4-4.16-6.52-6-10.61-3.66a9.89,9.89,0,0,0-3.86,4Z"/><path class="cls-3" d="M1140.88,292.07l5.06-2.91-5.68-9.84,6.51-3.76,14,24.17-6.51,3.76-5.36-9.28-5.06,2.92,5.36,9.28-6.51,3.76-14-24.17,6.51-3.76Z"/><path class="cls-3" d="M1128.51,318.89c-5.26,3-12.77,2.66-18-6.31s-1.75-15.66,3.52-18.7,12.77-2.66,18,6.31S1133.78,315.85,1128.51,318.89Zm-11.69-20.41,0,0c-2.74,1.58-2.27,5.43.49,10.21s5.85,7.1,8.59,5.52,2.26-5.51-.45-10.22S1119.56,296.9,1116.82,298.48Z"/><path class="cls-3" d="M1104.13,333c-5.27,3-12.78,2.66-18-6.31s-1.75-15.66,3.52-18.7,12.77-2.66,18,6.31S1109.39,329.93,1104.13,333Zm-11.69-20.41,0,0c-2.73,1.58-2.27,5.42.49,10.2s5.85,7.11,8.59,5.53,2.27-5.51-.45-10.22S1095.17,311,1092.44,312.56Z"/><path class="cls-3" d="M1089.51,340.85l-6.51,3.76-11.12-19.25-8,4.59-2.84-4.91,14.48-8.36Z"/><path class="cls-3" d="M1221,191.72V181c0-8.2,5.48-12.8,13.8-12.8,9.68,0,14.12,5.12,14.12,14v9.6Zm22.56-7.52v-1.64c0-4.32-3.08-6.48-8.48-6.48-7.16,0-8.56,3.44-8.56,7.52v.6Z"/><path class="cls-3" d="M1221,164.32V156.8H1249v7.52Z"/><path class="cls-3" d="M1232.8,139.92V129.08h15.08a21.19,21.19,0,0,1,1.56,8.44c0,8.6-5,15.08-14.28,15.08-8.44,0-14.6-5-14.6-15.44a21.88,21.88,0,0,1,1.12-7.24l6,.4a11.49,11.49,0,0,0-1.56,6.12c0,5.8,3.68,8.4,9.12,8.4s8.56-2.76,8.56-6.28a4.92,4.92,0,0,0-.48-2.44H1238v3.8Z"/><path class="cls-3" d="M1221,124.36v-7.52H1249v7.52Z"/><path class="cls-3" d="M1226.72,107.72v6H1221V94.2h5.68v6H1249v7.52Z"/><path class="cls-3" d="M1243,77.76V86l5.92,1.8V95L1221,85.68V77.4L1249,68.52v7.76Zm-16.32,3.84v.08l11,3V79.16Z"/><path class="cls-3" d="M1221,65.88V58.36h22.24v-9.2H1249V65.88Z"/><path class="cls-3" d="M1269.58,31.13a14.57,14.57,0,0,0,4.63,4.62c2.46,1.41,3.94.84,4.82-.68s.11-2.67-1.34-4.47l-1.1-1.38c-3.08-3.86-3.06-6.7-1.08-10.13,2.64-4.57,7.81-5.05,12.94-2.09a19.3,19.3,0,0,1,5.54,4.49l-3,4.58a13.67,13.67,0,0,0-4.29-4.09c-1.94-1.12-3.57-1-4.43.49-.72,1.24-.42,2.16,1.17,4.37l2.15,3c1.6,2.27,2.62,4.89.54,8.49-3.06,5.3-8.43,5.8-14.07,2.54a28.25,28.25,0,0,1-5.9-4.65Z"/><path class="cls-3" d="M1309.62,29.22c5.26,3,8.69,9.73,3.51,18.7s-12.69,9.34-18,6.3-8.7-9.73-3.52-18.7S1304.35,26.18,1309.62,29.22Zm-11.83,20.32,0,0c2.74,1.58,5.84-.74,8.59-5.52s3.23-8.62.49-10.2-5.91.79-8.62,5.5S1295.05,48,1297.79,49.54Z"/><path class="cls-3" d="M1327.38,71.57a24.31,24.31,0,0,1-6.5-2.51c-7-4-9.63-11.15-4.73-19.63,4.12-7.14,11.2-10,19.14-5.39a17.34,17.34,0,0,1,5.21,4.49l-3.43,5.13a11.47,11.47,0,0,0-3.91-4.11c-4.15-2.39-7.65-.81-10.37,3.9-2.4,4.15-2,8.66,2.13,11a10,10,0,0,0,5.42,1.33Z"/><path class="cls-3" d="M1344.3,49.79l6.51,3.76-14,24.18L1330.34,74Z"/><path class="cls-3" d="M1355.17,56.07,1370,64.63l-2.76,4.78-8.45-4.88-2.68,4.64,8,4.64-2.76,4.78-8-4.64-3,5.2,8.9,5.14-2.76,4.78-15.27-8.82Z"/><path class="cls-3" d="M1374.47,73.77l-5.2-3,2.84-4.92,16.9,9.76-2.84,4.92-5.19-3-11.12,19.26L1363.35,93Z"/><path class="cls-3" d="M1388,95.51l1.57-19.6,7.41,4.28-2,11.21.07,0L1403.5,84l7.16,4.14-16.18,11.16-5.08,8.8-6.51-3.76Z"/><path class="cls-3" d="M1396.08,139.39a14.6,14.6,0,0,0-6.31,1.7c-2.46,1.42-2.71,3-1.83,4.52s2.25,1.42,4.54,1.07l1.74-.27c4.89-.74,7.34.71,9.32,4.14,2.64,4.57.47,9.29-4.66,12.25a19.46,19.46,0,0,1-6.66,2.55l-2.46-4.91a13.67,13.67,0,0,0,5.69-1.67c1.94-1.12,2.66-2.59,1.8-4.08-.72-1.25-1.67-1.44-4.37-1.17l-3.67.36c-2.76.26-5.55-.17-7.63-3.77-3.06-5.3-.81-10.2,4.84-13.46a28.66,28.66,0,0,1,7-2.78Z"/><path class="cls-3" d="M1356.54,155.14a24.43,24.43,0,0,1,5.42-4.37c7-4.06,14.47-2.77,19.37,5.72,4.12,7.13,3,14.69-4.9,19.27a17.45,17.45,0,0,1-6.49,2.27l-2.73-5.54a11.55,11.55,0,0,0,5.51-1.33c4.15-2.4,4.53-6.22,1.81-10.93-2.4-4.16-6.52-6-10.61-3.66a9.89,9.89,0,0,0-3.86,4Z"/><path class="cls-3" d="M1347.1,173l5.05-2.92-5.68-9.83,6.52-3.76,14,24.17-6.51,3.76-5.36-9.28-5,2.92,5.35,9.28-6.51,3.76L1334.91,167l6.51-3.76Z"/><path class="cls-3" d="M1334.73,199.84c-5.27,3-12.78,2.66-18-6.31s-1.75-15.66,3.52-18.7,12.78-2.67,18,6.3S1340,196.8,1334.73,199.84ZM1323,179.43l0,0c-2.73,1.58-2.27,5.42.49,10.2s5.85,7.11,8.59,5.53,2.27-5.52-.45-10.23S1325.77,177.85,1323,179.43Z"/><path class="cls-3" d="M1310.34,213.92c-5.27,3-12.78,2.66-18-6.31s-1.74-15.66,3.52-18.7,12.78-2.67,18,6.3S1315.6,210.88,1310.34,213.92Zm-11.69-20.41,0,0c-2.74,1.58-2.28,5.42.48,10.2s5.86,7.1,8.59,5.53,2.27-5.52-.45-10.23S1301.39,191.93,1298.65,193.51Z"/><path class="cls-3" d="M1295.72,221.8l-6.51,3.76-11.12-19.26-8,4.6-2.84-4.91,14.47-8.36Z"/><path class="cls-3" d="M1221,362.47V355H1249v7.52Z"/><path class="cls-3" d="M1226.72,345.83v6H1221V332.31h5.68v6H1249v7.52Z"/><path class="cls-3" d="M1243,315.87v8.2l5.92,1.8v7.2L1221,323.79v-8.28l27.92-8.88v7.76Zm-16.32,3.84v.08l11,3v-5.52Z"/><path class="cls-3" d="M1221,304v-7.52h22.24v-9.2H1249V304Z"/><path class="cls-3" d="M1269.58,269.24a14.57,14.57,0,0,0,4.63,4.62c2.46,1.42,3.94.84,4.82-.68s.11-2.66-1.34-4.47l-1.1-1.38c-3.08-3.85-3.06-6.7-1.08-10.13,2.64-4.57,7.81-5,12.94-2.09a19.3,19.3,0,0,1,5.54,4.49l-3,4.58a13.78,13.78,0,0,0-4.29-4.09c-1.94-1.12-3.58-1-4.44.49-.72,1.25-.41,2.16,1.18,4.37l2.14,3c1.61,2.26,2.63,4.88.55,8.49-3.06,5.29-8.43,5.8-14.07,2.54a28.55,28.55,0,0,1-5.9-4.66Z"/><path class="cls-3" d="M1309.62,267.33c5.26,3,8.69,9.73,3.51,18.7s-12.69,9.35-18,6.31-8.7-9.73-3.52-18.71S1304.35,264.29,1309.62,267.33Zm-11.83,20.33,0,0c2.74,1.58,5.84-.75,8.59-5.53s3.23-8.62.49-10.2-5.91.79-8.62,5.5S1295.05,286.08,1297.79,287.66Z"/><path class="cls-3" d="M1327.38,309.68a24.17,24.17,0,0,1-6.5-2.5c-7-4.06-9.63-11.15-4.73-19.64,4.12-7.13,11.2-10,19.14-5.39a17.48,17.48,0,0,1,5.21,4.49l-3.43,5.13a11.46,11.46,0,0,0-3.91-4.1c-4.16-2.4-7.65-.82-10.37,3.89-2.4,4.16-2,8.66,2.13,11a9.9,9.9,0,0,0,5.42,1.33Z"/><path class="cls-3" d="M1344.29,287.91l6.52,3.76-14,24.17-6.51-3.76Z"/><path class="cls-3" d="M1355.17,294.19l14.83,8.55-2.76,4.78-8.45-4.87-2.68,4.64,8,4.64-2.76,4.78-8-4.64-3,5.19,8.9,5.14-2.76,4.78-15.28-8.82Z"/><path class="cls-3" d="M1374.47,311.88l-5.2-3,2.84-4.91,16.9,9.75-2.84,4.92-5.19-3-11.12,19.26-6.51-3.76Z"/><path class="cls-3" d="M1388,333.62l1.57-19.59,7.41,4.28-2,11.2.07,0,8.51-7.47,7.17,4.14-16.18,11.16-5.08,8.8-6.51-3.76Z"/><path class="cls-3" d="M1427.26,72.66V61.91c0-8.2,5.48-12.8,13.79-12.8,9.68,0,14.12,5.12,14.12,14v9.59Zm22.55-7.51V63.51c0-4.32-3.08-6.48-8.48-6.48-7.15,0-8.55,3.44-8.55,7.52v.6Z"/><path class="cls-3" d="M1427.26,45.26V37.75h27.91v7.51Z"/><path class="cls-3" d="M1439,20.87V10h15.07a21.19,21.19,0,0,1,1.56,8.44c0,8.59-5,15.07-14.28,15.07-8.43,0-14.59-5-14.59-15.43a21.88,21.88,0,0,1,1.12-7.24l6,.4a11.49,11.49,0,0,0-1.56,6.12c0,5.8,3.68,8.39,9.11,8.39S1450,23,1450,19.51a4.92,4.92,0,0,0-.48-2.44h-5.28v3.8Z"/><path class="cls-3" d="M1427.26,5.3V-2.21h27.91V5.3Z"/><path class="cls-3" d="M1602.3,20.33A14.68,14.68,0,0,0,1596,22c-2.46,1.42-2.7,3-1.82,4.51s2.25,1.43,4.54,1.07l1.74-.26c4.89-.74,7.34.7,9.32,4.13,2.64,4.58.47,9.29-4.66,12.25a19.26,19.26,0,0,1-6.66,2.55l-2.46-4.9a13.71,13.71,0,0,0,5.69-1.67c1.94-1.12,2.66-2.6,1.8-4.09-.72-1.24-1.67-1.44-4.37-1.17l-3.67.37c-2.77.25-5.55-.17-7.63-3.77-3.06-5.3-.81-10.2,4.84-13.46a28.79,28.79,0,0,1,7-2.79Z"/><path class="cls-3" d="M1562.76,36.09a24.2,24.2,0,0,1,5.42-4.37c7-4.06,14.47-2.77,19.37,5.71,4.12,7.14,3,14.69-4.9,19.27a17.25,17.25,0,0,1-6.49,2.27l-2.73-5.53a11.55,11.55,0,0,0,5.51-1.33c4.15-2.4,4.53-6.23,1.81-10.94-2.4-4.15-6.52-6-10.61-3.66a9.89,9.89,0,0,0-3.86,4Z"/><path class="cls-3" d="M1553.31,54l5.06-2.92-5.68-9.84,6.51-3.76,14,24.18-6.51,3.76-5.36-9.29L1556.23,59l5.36,9.29-6.51,3.75-14-24.17,6.52-3.76Z"/><path class="cls-3" d="M1540.94,80.78c-5.26,3-12.77,2.67-18-6.3s-1.75-15.66,3.52-18.7,12.77-2.67,18,6.3S1546.21,77.74,1540.94,80.78Zm-11.68-20.4,0,0c-2.74,1.58-2.27,5.42.49,10.2s5.85,7.1,8.59,5.52,2.27-5.51-.45-10.22S1532,58.8,1529.26,60.38Z"/><path class="cls-3" d="M1516.56,94.86c-5.27,3-12.78,2.67-18-6.3s-1.74-15.67,3.52-18.7,12.78-2.67,18,6.3S1521.82,91.82,1516.56,94.86Zm-11.69-20.4,0,0c-2.73,1.58-2.27,5.42.49,10.2s5.86,7.1,8.59,5.52,2.27-5.51-.45-10.22S1507.6,72.88,1504.87,74.46Z"/><path class="cls-3" d="M1501.94,102.75l-6.51,3.76-11.12-19.26-8,4.6-2.84-4.92L1488,78.57Z"/><path class="cls-3" d="M1427.26,310.77V300c0-8.19,5.48-12.79,13.79-12.79,9.68,0,14.12,5.12,14.12,13.95v9.6Zm22.55-7.52v-1.64c0-4.31-3.08-6.47-8.48-6.47-7.15,0-8.55,3.43-8.55,7.51v.6Z"/><path class="cls-3" d="M1427.26,283.37v-7.52h27.91v7.52Z"/><path class="cls-3" d="M1439,259V248.14h15.07a21.19,21.19,0,0,1,1.56,8.44c0,8.59-5,15.07-14.28,15.07-8.43,0-14.59-5-14.59-15.43a21.88,21.88,0,0,1,1.12-7.24l6,.4a11.49,11.49,0,0,0-1.56,6.12c0,5.79,3.68,8.39,9.11,8.39s8.56-2.76,8.56-6.27a4.92,4.92,0,0,0-.48-2.44h-5.28V259Z"/><path class="cls-3" d="M1427.26,243.41v-7.52h27.91v7.52Z"/><path class="cls-3" d="M1432.94,226.77v6h-5.68V213.26h5.68v6h22.23v7.51Z"/><path class="cls-3" d="M1449.25,196.82V205l5.92,1.8V214l-27.91-9.28v-8.27l27.91-8.88v7.76Zm-16.31,3.84v.07l11,3v-5.51Z"/><path class="cls-3" d="M1427.26,184.93v-7.52h22.23v-9.19h5.68v16.71Z"/><path class="cls-3" d="M1475.79,150.19a14.61,14.61,0,0,0,4.64,4.61c2.45,1.42,3.94.85,4.82-.68s.11-2.66-1.34-4.47l-1.1-1.37c-3.09-3.86-3.06-6.71-1.08-10.14,2.64-4.57,7.81-5,12.94-2.09a19.43,19.43,0,0,1,5.53,4.49l-3,4.59a13.77,13.77,0,0,0-4.29-4.09c-1.94-1.12-3.58-1-4.44.48-.72,1.25-.42,2.16,1.17,4.37l2.15,3c1.6,2.26,2.63,4.89.55,8.49-3.06,5.3-8.43,5.8-14.08,2.54a29.16,29.16,0,0,1-5.9-4.65Z"/><path class="cls-3" d="M1515.83,148.27c5.27,3,8.7,9.74,3.52,18.71s-12.69,9.34-18,6.3-8.69-9.73-3.51-18.7S1510.57,145.23,1515.83,148.27ZM1504,168.6l0,0c2.74,1.58,5.83-.74,8.59-5.52s3.22-8.63.49-10.2-5.91.79-8.63,5.5S1501.27,167,1504,168.6Z"/><path class="cls-3" d="M1533.6,190.62a23.72,23.72,0,0,1-6.5-2.5c-7-4.06-9.64-11.15-4.74-19.63,4.12-7.14,11.21-10,19.14-5.4a17.34,17.34,0,0,1,5.21,4.49l-3.42,5.14a11.48,11.48,0,0,0-3.91-4.11c-4.16-2.4-7.66-.82-10.38,3.89-2.4,4.16-2,8.67,2.14,11a9.94,9.94,0,0,0,5.42,1.32Z"/><path class="cls-3" d="M1550.51,168.85l6.51,3.76-14,24.17-6.52-3.75Z"/><path class="cls-3" d="M1561.39,175.13l14.82,8.56-2.76,4.78-8.45-4.88-2.68,4.64,8,4.64-2.76,4.78-8-4.64-3,5.2,8.9,5.13-2.75,4.78-15.28-8.81Z"/><path class="cls-3" d="M1580.68,192.83l-5.19-3,2.84-4.92,16.9,9.76-2.84,4.92-5.2-3-11.11,19.25-6.51-3.76Z"/><path class="cls-3" d="M1594.18,214.57l1.57-19.6,7.41,4.28-2,11.2.07,0,8.51-7.46,7.17,4.14-16.19,11.16-5.08,8.79-6.51-3.76Z"/><path class="cls-3" d="M1602.29,258.44a14.63,14.63,0,0,0-6.31,1.7c-2.46,1.42-2.7,3-1.82,4.52s2.25,1.43,4.54,1.07l1.74-.26c4.88-.74,7.34.7,9.32,4.13,2.64,4.57.46,9.29-4.66,12.25a19.26,19.26,0,0,1-6.66,2.55l-2.46-4.91a13.68,13.68,0,0,0,5.69-1.66c1.94-1.12,2.65-2.6,1.79-4.09-.72-1.24-1.66-1.44-4.37-1.17l-3.67.36c-2.76.26-5.54-.16-7.62-3.77-3.06-5.3-.81-10.2,4.83-13.46a28.54,28.54,0,0,1,7-2.78Z"/><path class="cls-3" d="M1562.76,274.2a24,24,0,0,1,5.42-4.38c7-4.06,14.47-2.76,19.37,5.72,4.12,7.14,3,14.69-4.9,19.27a17.45,17.45,0,0,1-6.49,2.27l-2.74-5.53a11.54,11.54,0,0,0,5.51-1.34c4.16-2.4,4.54-6.22,1.82-10.93-2.4-4.15-6.52-6-10.61-3.66a9.89,9.89,0,0,0-3.86,4Z"/><path class="cls-3" d="M1553.31,292.08l5.06-2.92-5.68-9.84,6.51-3.76,14,24.18-6.51,3.75-5.36-9.28-5.06,2.92,5.36,9.28-6.51,3.76-14-24.17,6.51-3.76Z"/><path class="cls-3" d="M1540.94,318.89c-5.26,3-12.77,2.67-18-6.3s-1.75-15.67,3.52-18.71,12.77-2.66,18,6.31S1546.21,315.85,1540.94,318.89Zm-11.69-20.41,0,0c-2.74,1.58-2.27,5.43.49,10.21s5.85,7.1,8.59,5.52,2.27-5.51-.45-10.22S1532,296.9,1529.25,298.48Z"/><path class="cls-3" d="M1516.56,333c-5.27,3-12.78,2.67-18-6.3s-1.75-15.67,3.52-18.71,12.78-2.66,18,6.31S1521.82,329.93,1516.56,333Zm-11.69-20.41,0,0c-2.73,1.58-2.27,5.43.49,10.21s5.85,7.1,8.59,5.52,2.27-5.51-.45-10.22S1507.6,311,1504.87,312.56Z"/><path class="cls-3" d="M1501.94,340.86l-6.51,3.75-11.12-19.25-8,4.6L1473.5,325l14.48-8.36Z"/><path class="cls-3" d="M1633.47,191.72V181c0-8.2,5.48-12.8,13.8-12.8,9.68,0,14.12,5.12,14.12,14v9.6ZM1656,184.2v-1.64c0-4.32-3.08-6.48-8.48-6.48-7.16,0-8.56,3.44-8.56,7.52v.6Z"/><path class="cls-3" d="M1633.47,164.32V156.8h27.92v7.52Z"/><path class="cls-3" d="M1645.23,139.92V129.08h15.08a21.19,21.19,0,0,1,1.56,8.44c0,8.6-5,15.08-14.28,15.08-8.44,0-14.6-5-14.6-15.44a21.88,21.88,0,0,1,1.12-7.24l6,.4a11.49,11.49,0,0,0-1.56,6.12c0,5.8,3.68,8.4,9.12,8.4s8.56-2.76,8.56-6.28a4.92,4.92,0,0,0-.48-2.44h-5.28v3.8Z"/><path class="cls-3" d="M1633.47,124.36v-7.52h27.92v7.52Z"/><path class="cls-3" d="M1639.15,107.72v6h-5.68V94.2h5.68v6h22.24v7.52Z"/><path class="cls-3" d="M1655.47,77.76V86l5.92,1.8V95l-27.92-9.28V77.4l27.92-8.88v7.76Zm-16.32,3.84v.08l11,3V79.16Z"/><path class="cls-3" d="M1633.47,65.88V58.36h22.24v-9.2h5.68V65.88Z"/><path class="cls-3" d="M1682,31.13a14.56,14.56,0,0,0,4.63,4.61c2.46,1.42,3.94.85,4.82-.67s.11-2.67-1.34-4.47l-1.1-1.38c-3.08-3.86-3.06-6.7-1.08-10.13,2.64-4.57,7.81-5.05,12.94-2.09a19.3,19.3,0,0,1,5.54,4.49l-3,4.58a13.67,13.67,0,0,0-4.29-4.09c-1.94-1.12-3.57-1-4.43.49-.72,1.24-.42,2.16,1.17,4.37l2.15,3c1.6,2.27,2.62,4.89.54,8.49-3.06,5.3-8.42,5.8-14.07,2.54a28.58,28.58,0,0,1-5.9-4.65Z"/><path class="cls-3" d="M1722.05,29.22c5.26,3,8.69,9.73,3.52,18.7s-12.7,9.34-18,6.3-8.7-9.73-3.52-18.7S1716.78,26.18,1722.05,29.22Zm-11.83,20.32,0,0c2.74,1.58,5.84-.74,8.6-5.52s3.22-8.62.48-10.2-5.9.79-8.62,5.5S1707.48,48,1710.22,49.54Z"/><path class="cls-3" d="M1739.81,71.57a24.31,24.31,0,0,1-6.5-2.51c-7-4.06-9.63-11.15-4.73-19.63,4.12-7.14,11.21-10,19.14-5.39a17.51,17.51,0,0,1,5.21,4.48l-3.43,5.14a11.47,11.47,0,0,0-3.91-4.11c-4.15-2.4-7.65-.81-10.37,3.9-2.4,4.15-2,8.66,2.13,11a10,10,0,0,0,5.42,1.33Z"/><path class="cls-3" d="M1756.73,49.79l6.51,3.76-14,24.18L1742.77,74Z"/><path class="cls-3" d="M1767.6,56.07l14.83,8.56-2.76,4.78-8.45-4.88-2.68,4.64,8,4.64-2.76,4.78-8-4.64-3,5.2,8.9,5.14-2.76,4.78-15.27-8.82Z"/><path class="cls-3" d="M1786.9,73.77l-5.2-3,2.84-4.92,16.9,9.76-2.83,4.92-5.2-3-11.12,19.26L1775.78,93Z"/><path class="cls-3" d="M1800.4,95.51l1.57-19.6,7.41,4.28-2,11.2.07,0,8.52-7.46,7.16,4.14-16.18,11.16-5.08,8.8-6.51-3.76Z"/><path class="cls-3" d="M1808.51,139.39a14.6,14.6,0,0,0-6.31,1.7c-2.46,1.42-2.71,3-1.83,4.52s2.26,1.42,4.55,1.07l1.74-.27c4.88-.74,7.33.71,9.31,4.14,2.64,4.57.47,9.29-4.66,12.25a19.41,19.41,0,0,1-6.65,2.55l-2.47-4.91a13.64,13.64,0,0,0,5.69-1.66c1.94-1.12,2.66-2.6,1.8-4.09-.72-1.25-1.66-1.44-4.37-1.17l-3.67.36c-2.76.26-5.55-.17-7.63-3.77-3.06-5.3-.81-10.2,4.84-13.46a28.66,28.66,0,0,1,7-2.78Z"/><path class="cls-3" d="M1769,155.15a23.94,23.94,0,0,1,5.41-4.38c7-4.06,14.48-2.77,19.38,5.72,4.11,7.13,3,14.69-4.9,19.27a17.53,17.53,0,0,1-6.5,2.27l-2.73-5.54a11.41,11.41,0,0,0,5.51-1.33c4.16-2.4,4.54-6.22,1.82-10.93-2.4-4.16-6.53-6-10.62-3.66a10,10,0,0,0-3.86,4Z"/><path class="cls-3" d="M1759.53,173l5.06-2.92-5.68-9.83,6.51-3.76,13.95,24.17-6.51,3.76-5.36-9.28-5,2.92,5.36,9.28-6.51,3.76-14-24.17,6.51-3.76Z"/><path class="cls-3" d="M1747.16,199.84c-5.27,3-12.78,2.66-18-6.31s-1.74-15.66,3.52-18.7,12.78-2.67,18,6.3S1752.42,196.8,1747.16,199.84Zm-11.69-20.41,0,0c-2.73,1.58-2.27,5.42.49,10.2s5.86,7.11,8.59,5.53,2.27-5.52-.45-10.23S1738.21,177.85,1735.47,179.43Z"/><path class="cls-3" d="M1722.77,213.92c-5.26,3-12.78,2.66-18-6.31s-1.75-15.66,3.51-18.7,12.78-2.67,18,6.3S1728,210.88,1722.77,213.92Zm-11.69-20.41,0,0c-2.74,1.58-2.27,5.42.49,10.2s5.85,7.11,8.59,5.53,2.26-5.52-.46-10.23S1713.82,191.93,1711.08,193.51Z"/><path class="cls-3" d="M1708.15,221.8l-6.51,3.76-11.12-19.26-8,4.6-2.84-4.91,14.48-8.36Z"/><path class="cls-3" d="M1633.47,362.47V355h27.92v7.52Z"/><path class="cls-3" d="M1639.15,345.83v6h-5.68V332.31h5.68v6h22.24v7.52Z"/><path class="cls-3" d="M1655.47,315.87v8.2l5.92,1.8v7.2l-27.92-9.28v-8.28l27.92-8.88v7.76Zm-16.32,3.84v.08l11,3v-5.52Z"/><path class="cls-3" d="M1633.47,304v-7.52h22.24v-9.2h5.68V304Z"/><path class="cls-3" d="M1682,269.24a14.57,14.57,0,0,0,4.63,4.62c2.46,1.42,3.94.84,4.82-.68s.11-2.66-1.34-4.47l-1.1-1.38c-3.08-3.85-3.06-6.7-1.08-10.13,2.64-4.57,7.81-5,12.94-2.09a19.3,19.3,0,0,1,5.54,4.49l-3,4.58a13.67,13.67,0,0,0-4.29-4.09c-1.94-1.12-3.57-1-4.43.49-.72,1.24-.42,2.16,1.17,4.37l2.15,3c1.6,2.27,2.62,4.89.54,8.49-3.06,5.3-8.43,5.81-14.07,2.55a28.55,28.55,0,0,1-5.9-4.66Z"/><path class="cls-3" d="M1722.05,267.33c5.26,3,8.69,9.73,3.51,18.7s-12.69,9.34-18,6.31-8.7-9.74-3.52-18.71S1716.78,264.29,1722.05,267.33Zm-11.83,20.32,0,0c2.74,1.58,5.84-.74,8.6-5.52s3.22-8.62.48-10.2-5.9.79-8.62,5.5S1707.48,286.07,1710.22,287.65Z"/><path class="cls-3" d="M1739.81,309.68a24.3,24.3,0,0,1-6.5-2.5c-7-4.06-9.63-11.15-4.73-19.64,4.12-7.13,11.2-10,19.14-5.39a17.34,17.34,0,0,1,5.21,4.49l-3.43,5.13a11.46,11.46,0,0,0-3.91-4.1c-4.15-2.4-7.65-.82-10.37,3.89-2.4,4.15-2,8.66,2.13,11a10,10,0,0,0,5.42,1.33Z"/><path class="cls-3" d="M1756.73,287.91l6.51,3.75-14,24.18-6.51-3.76Z"/><path class="cls-3" d="M1767.6,294.19l14.83,8.55-2.76,4.78-8.45-4.88-2.68,4.64,8,4.64-2.76,4.78-8-4.64-3,5.2,8.9,5.14-2.76,4.78-15.28-8.82Z"/><path class="cls-3" d="M1786.9,311.88l-5.2-3,2.84-4.91,16.9,9.75-2.83,4.92-5.2-3-11.12,19.26-6.51-3.76Z"/><path class="cls-3" d="M1800.4,333.62,1802,314l7.41,4.27-2,11.21.07,0,8.51-7.47,7.17,4.14-16.18,11.16-5.08,8.8-6.51-3.76Z"/><path class="cls-3" d="M1839.69,72.66V61.91c0-8.2,5.47-12.8,13.79-12.8,9.68,0,14.12,5.12,14.12,14v9.59Zm22.55-7.51V63.51c0-4.32-3.08-6.48-8.48-6.48-7.15,0-8.55,3.44-8.55,7.52v.6Z"/><path class="cls-3" d="M1839.69,45.26V37.75h27.91v7.51Z"/><path class="cls-3" d="M1851.44,20.87V10h15.08a21.19,21.19,0,0,1,1.56,8.44c0,8.59-5,15.07-14.28,15.07-8.43,0-14.59-5-14.59-15.43a21.88,21.88,0,0,1,1.12-7.24l6,.4a11.49,11.49,0,0,0-1.56,6.12c0,5.8,3.67,8.39,9.11,8.39s8.56-2.75,8.56-6.27a4.92,4.92,0,0,0-.48-2.44h-5.28v3.8Z"/><path class="cls-3" d="M1839.69,5.3V-2.21h27.91V5.3Z"/><path class="cls-3" d="M2014.73,20.33a14.64,14.64,0,0,0-6.31,1.71c-2.46,1.42-2.71,3-1.83,4.51s2.25,1.43,4.54,1.07l1.74-.26c4.89-.74,7.34.71,9.32,4.13,2.64,4.58.47,9.29-4.66,12.25a19.21,19.21,0,0,1-6.65,2.55l-2.47-4.9a13.67,13.67,0,0,0,5.69-1.67c1.94-1.12,2.66-2.6,1.8-4.09-.72-1.24-1.67-1.44-4.37-1.17l-3.67.37c-2.76.25-5.55-.17-7.63-3.77-3.06-5.3-.81-10.2,4.84-13.46a28.79,28.79,0,0,1,7-2.79Z"/><path class="cls-3" d="M1975.2,36.09a24.16,24.16,0,0,1,5.41-4.37c7-4.06,14.47-2.77,19.37,5.71,4.12,7.14,3,14.69-4.9,19.27a17.25,17.25,0,0,1-6.49,2.27l-2.73-5.53a11.53,11.53,0,0,0,5.51-1.33c4.16-2.4,4.53-6.23,1.82-10.94-2.4-4.15-6.53-6-10.62-3.66a9.89,9.89,0,0,0-3.86,4Z"/><path class="cls-3" d="M1965.75,54l5-2.92-5.68-9.84,6.52-3.76,13.95,24.18-6.51,3.76-5.36-9.29-5,2.92,5.36,9.29-6.52,3.76-14-24.18,6.51-3.76Z"/><path class="cls-3" d="M1953.38,80.78c-5.27,3-12.78,2.67-18-6.3s-1.75-15.66,3.52-18.7,12.78-2.67,18,6.3S1958.64,77.74,1953.38,80.78Zm-11.69-20.4,0,0c-2.73,1.58-2.27,5.42.49,10.2s5.86,7.1,8.59,5.52,2.27-5.51-.45-10.22S1944.42,58.8,1941.69,60.38Z"/><path class="cls-3" d="M1929,94.86c-5.26,3-12.78,2.67-18-6.3s-1.74-15.67,3.52-18.7,12.78-2.67,18,6.3S1934.25,91.82,1929,94.86Zm-11.69-20.4,0,0c-2.74,1.58-2.28,5.42.48,10.2s5.86,7.1,8.59,5.52,2.27-5.51-.45-10.22S1920,72.88,1917.3,74.46Z"/><path class="cls-3" d="M1914.37,102.75l-6.51,3.76-11.12-19.26-8,4.6-2.84-4.92,14.47-8.36Z"/><path class="cls-3" d="M1839.69,310.77V300c0-8.19,5.47-12.79,13.79-12.79,9.68,0,14.12,5.12,14.12,13.95v9.6Zm22.55-7.52v-1.64c0-4.31-3.08-6.47-8.48-6.47-7.15,0-8.55,3.43-8.55,7.51v.6Z"/><path class="cls-3" d="M1839.69,283.37v-7.52h27.91v7.52Z"/><path class="cls-3" d="M1851.44,259V248.14h15.08a21.19,21.19,0,0,1,1.56,8.44c0,8.59-5,15.07-14.28,15.07-8.43,0-14.59-5-14.59-15.43a21.88,21.88,0,0,1,1.12-7.24l6,.4a11.49,11.49,0,0,0-1.56,6.12c0,5.79,3.67,8.39,9.11,8.39s8.56-2.76,8.56-6.27a4.92,4.92,0,0,0-.48-2.44h-5.28V259Z"/><path class="cls-3" d="M1839.69,243.41v-7.52h27.91v7.52Z"/><path class="cls-3" d="M1845.37,226.77v6h-5.68V213.26h5.68v6h22.23v7.51Z"/><path class="cls-3" d="M1861.68,196.82V205l5.92,1.8V214l-27.91-9.28v-8.27l27.91-8.88v7.76Zm-16.31,3.84v.07l11,3v-5.51Z"/><path class="cls-3" d="M1839.69,184.93v-7.52h22.23v-9.19h5.68v16.71Z"/><path class="cls-3" d="M1888.22,150.19a14.72,14.72,0,0,0,4.64,4.61c2.46,1.42,3.94.85,4.82-.68s.11-2.66-1.34-4.47l-1.1-1.37c-3.09-3.86-3.06-6.71-1.08-10.14,2.64-4.57,7.81-5,12.94-2.09a19.43,19.43,0,0,1,5.53,4.49l-3,4.59a13.79,13.79,0,0,0-4.29-4.1c-1.94-1.11-3.58-1-4.44.49-.72,1.25-.41,2.16,1.17,4.37l2.15,3c1.6,2.26,2.63,4.89.55,8.49-3.06,5.3-8.43,5.8-14.07,2.54a28.62,28.62,0,0,1-5.91-4.66Z"/><path class="cls-3" d="M1928.26,148.27c5.27,3,8.7,9.73,3.52,18.7s-12.69,9.35-18,6.31-8.7-9.73-3.52-18.7S1923,145.23,1928.26,148.27Zm-11.82,20.33,0,0c2.74,1.58,5.83-.74,8.59-5.52s3.23-8.63.49-10.21-5.91.8-8.63,5.51S1913.7,167,1916.44,168.6Z"/><path class="cls-3" d="M1946,190.62a23.72,23.72,0,0,1-6.5-2.5c-7-4.06-9.64-11.15-4.74-19.64,4.12-7.13,11.21-10,19.14-5.39a17.58,17.58,0,0,1,5.22,4.49l-3.43,5.13a11.55,11.55,0,0,0-3.91-4.1c-4.16-2.4-7.66-.82-10.38,3.89-2.4,4.16-2,8.66,2.14,11a9.89,9.89,0,0,0,5.42,1.33Z"/><path class="cls-3" d="M1962.94,168.85l6.51,3.76-14,24.17L1949,193Z"/><path class="cls-3" d="M1973.82,175.13l14.82,8.56-2.76,4.78-8.45-4.88-2.68,4.64,8,4.64-2.76,4.78-8-4.64-3,5.19,8.91,5.14-2.76,4.78-15.28-8.82Z"/><path class="cls-3" d="M1993.12,192.83l-5.2-3,2.84-4.92,16.9,9.76-2.84,4.92-5.2-3-11.11,19.25-6.51-3.76Z"/><path class="cls-3" d="M2006.61,214.57l1.57-19.6,7.42,4.28-2,11.2.07,0,8.51-7.46,7.17,4.14-16.19,11.16-5.08,8.79-6.51-3.76Z"/><path class="cls-3" d="M2014.73,258.44a14.66,14.66,0,0,0-6.32,1.7c-2.45,1.42-2.7,3-1.82,4.52s2.25,1.43,4.54,1.07l1.74-.26c4.89-.74,7.34.7,9.32,4.13,2.64,4.57.47,9.29-4.66,12.25a19.26,19.26,0,0,1-6.66,2.55l-2.46-4.9a13.86,13.86,0,0,0,5.69-1.67c1.94-1.12,2.66-2.6,1.8-4.09-.72-1.24-1.67-1.44-4.37-1.17l-3.67.36c-2.76.26-5.55-.16-7.63-3.77-3.06-5.29-.81-10.2,4.84-13.45a28.79,28.79,0,0,1,7-2.79Z"/><path class="cls-3" d="M1975.19,274.2a24.48,24.48,0,0,1,5.42-4.38c7-4.05,14.47-2.76,19.37,5.72,4.12,7.14,3,14.69-4.9,19.27a17.25,17.25,0,0,1-6.49,2.27l-2.73-5.53a11.58,11.58,0,0,0,5.51-1.34c4.15-2.4,4.53-6.22,1.81-10.93-2.4-4.15-6.52-6-10.61-3.66a9.89,9.89,0,0,0-3.86,4Z"/><path class="cls-3" d="M1965.75,292.08l5-2.92-5.68-9.84,6.51-3.76,14,24.18-6.51,3.75-5.36-9.28-5.06,2.92,5.36,9.28-6.51,3.76-14-24.17,6.51-3.76Z"/><path class="cls-3" d="M1953.37,318.89c-5.26,3-12.77,2.67-17.95-6.3s-1.75-15.67,3.52-18.71,12.77-2.66,18,6.31S1958.64,315.85,1953.37,318.89Zm-11.68-20.41,0,0c-2.73,1.58-2.27,5.43.49,10.21s5.85,7.1,8.59,5.52,2.27-5.51-.45-10.22S1944.42,296.9,1941.69,298.48Z"/><path class="cls-3" d="M1929,333c-5.27,3-12.78,2.67-18-6.3s-1.74-15.67,3.52-18.71,12.78-2.66,18,6.31S1934.25,329.93,1929,333Zm-11.69-20.41,0,0c-2.73,1.58-2.27,5.43.49,10.21s5.86,7.1,8.59,5.52,2.27-5.51-.45-10.22S1920,311,1917.3,312.56Z"/><path class="cls-3" d="M1914.37,340.86l-6.51,3.75-11.12-19.25-8,4.6-2.84-4.92,14.47-8.36Z"/><path class="cls-3" d="M2045.9,191.72V181c0-8.2,5.48-12.8,13.8-12.8,9.68,0,14.12,5.12,14.12,14v9.6Zm22.56-7.52v-1.64c0-4.32-3.08-6.48-8.48-6.48-7.16,0-8.56,3.44-8.56,7.52v.6Z"/><path class="cls-3" d="M2045.9,164.32V156.8h27.92v7.52Z"/><path class="cls-3" d="M2057.66,139.92V129.08h15.08a21.19,21.19,0,0,1,1.56,8.44c0,8.6-5,15.08-14.28,15.08-8.44,0-14.6-5-14.6-15.44a21.88,21.88,0,0,1,1.12-7.24l6,.4a11.49,11.49,0,0,0-1.56,6.12c0,5.8,3.68,8.4,9.12,8.4s8.56-2.76,8.56-6.28a4.92,4.92,0,0,0-.48-2.44h-5.28v3.8Z"/><path class="cls-3" d="M2045.9,124.36v-7.52h27.92v7.52Z"/><path class="cls-3" d="M2051.58,107.72v6h-5.68V94.2h5.68v6h22.24v7.52Z"/><path class="cls-3" d="M2067.9,77.76V86l5.92,1.8V95l-27.92-9.28V77.4l27.92-8.88v7.76Zm-16.32,3.84v.08l11,3V79.16Z"/><path class="cls-3" d="M2045.9,65.88V58.36h22.24v-9.2h5.68V65.88Z"/><path class="cls-3" d="M2094.44,31.13a14.67,14.67,0,0,0,4.63,4.61c2.46,1.42,3.95.85,4.83-.67s.1-2.67-1.35-4.48l-1.1-1.37c-3.08-3.86-3-6.7-1.07-10.13,2.64-4.58,7.81-5.05,12.93-2.09a19.16,19.16,0,0,1,5.54,4.49l-3,4.58a13.67,13.67,0,0,0-4.29-4.09c-1.93-1.12-3.57-1-4.43.49-.72,1.24-.42,2.16,1.17,4.37l2.15,3c1.6,2.27,2.63,4.89.55,8.49-3.06,5.3-8.43,5.8-14.08,2.54a28.58,28.58,0,0,1-5.9-4.65Z"/><path class="cls-3" d="M2134.48,29.22c5.26,3,8.7,9.73,3.52,18.7s-12.69,9.34-18,6.3-8.7-9.73-3.52-18.7S2129.21,26.18,2134.48,29.22Zm-11.83,20.32,0,0c2.73,1.58,5.83-.74,8.59-5.52s3.22-8.62.49-10.2-5.91.79-8.63,5.5S2119.92,48,2122.65,49.54Z"/><path class="cls-3" d="M2152.24,71.57a24.11,24.11,0,0,1-6.49-2.51c-7-4.06-9.64-11.15-4.74-19.63,4.12-7.14,11.21-10,19.14-5.39a17.51,17.51,0,0,1,5.21,4.48l-3.42,5.14a11.66,11.66,0,0,0-3.91-4.11c-4.16-2.4-7.66-.81-10.38,3.9-2.4,4.15-2,8.66,2.13,11a10,10,0,0,0,5.43,1.33Z"/><path class="cls-3" d="M2169.16,49.79l6.51,3.76-14,24.18L2155.2,74Z"/><path class="cls-3" d="M2180,56.07l14.82,8.56-2.76,4.78-8.45-4.88L2181,69.17l8,4.64-2.76,4.78-8-4.64-3,5.2,8.9,5.14-2.76,4.78-15.27-8.82Z"/><path class="cls-3" d="M2199.33,73.77l-5.2-3,2.84-4.92,16.91,9.76L2211,80.53l-5.2-3-11.12,19.26L2188.21,93Z"/><path class="cls-3" d="M2212.83,95.51l1.57-19.6,7.41,4.28-2,11.2.07,0,8.51-7.46,7.17,4.14-16.19,11.16-5.08,8.8-6.51-3.76Z"/><path class="cls-3" d="M2220.94,139.39a14.63,14.63,0,0,0-6.31,1.7c-2.46,1.42-2.7,3-1.82,4.52s2.25,1.42,4.54,1.07l1.74-.27c4.88-.74,7.33.71,9.31,4.14,2.64,4.57.47,9.29-4.65,12.25a19.54,19.54,0,0,1-6.66,2.55l-2.46-4.91a13.64,13.64,0,0,0,5.68-1.66c1.94-1.12,2.66-2.6,1.8-4.09-.72-1.25-1.66-1.44-4.37-1.17l-3.67.36c-2.76.26-5.54-.17-7.62-3.77-3.06-5.3-.81-10.2,4.83-13.46a28.66,28.66,0,0,1,7-2.78Z"/><path class="cls-3" d="M2181.41,155.15a23.76,23.76,0,0,1,5.42-4.38c7-4.06,14.47-2.77,19.37,5.72,4.12,7.13,3,14.69-4.9,19.27a17.47,17.47,0,0,1-6.5,2.27l-2.73-5.54a11.41,11.41,0,0,0,5.51-1.33c4.16-2.4,4.54-6.22,1.82-10.93-2.4-4.16-6.53-6-10.61-3.66a9.89,9.89,0,0,0-3.86,4Z"/><path class="cls-3" d="M2172,173l5.06-2.92-5.68-9.83,6.51-3.76,14,24.17-6.51,3.76-5.36-9.28-5.06,2.92,5.36,9.28-6.51,3.76-14-24.17,6.51-3.76Z"/><path class="cls-3" d="M2159.59,199.84c-5.26,3-12.78,2.66-18-6.31s-1.74-15.66,3.52-18.7,12.78-2.67,18,6.3S2164.86,196.8,2159.59,199.84Zm-11.69-20.41,0,0c-2.74,1.58-2.28,5.42.48,10.2s5.86,7.11,8.6,5.53,2.26-5.52-.46-10.23S2150.64,177.85,2147.9,179.43Z"/><path class="cls-3" d="M2135.2,213.92c-5.26,3-12.77,2.66-17.95-6.31s-1.75-15.66,3.52-18.7,12.77-2.67,17.95,6.3S2140.47,210.88,2135.2,213.92Zm-11.69-20.41,0,0c-2.74,1.58-2.27,5.42.49,10.2s5.85,7.11,8.59,5.53,2.27-5.52-.45-10.23S2126.25,191.93,2123.51,193.51Z"/><path class="cls-3" d="M2120.59,221.8l-6.52,3.76L2103,206.3l-8,4.6-2.84-4.91,14.48-8.36Z"/><path class="cls-3" d="M2045.9,362.47V355h27.92v7.52Z"/><path class="cls-3" d="M2051.58,345.83v6h-5.68V332.31h5.68v6h22.24v7.52Z"/><path class="cls-3" d="M2067.9,315.87v8.2l5.92,1.8v7.2l-27.92-9.28v-8.28l27.92-8.88v7.76Zm-16.32,3.84v.08l11,3v-5.52Z"/><path class="cls-3" d="M2045.9,304v-7.52h22.24v-9.2h5.68V304Z"/><path class="cls-3" d="M2094.44,269.24a14.67,14.67,0,0,0,4.63,4.62c2.46,1.42,3.95.84,4.83-.68s.1-2.67-1.35-4.47l-1.1-1.38c-3.08-3.86-3-6.7-1.07-10.13,2.64-4.57,7.81-5,12.93-2.09a19.16,19.16,0,0,1,5.54,4.49l-3,4.58a13.67,13.67,0,0,0-4.29-4.09c-1.93-1.12-3.57-1-4.43.49-.72,1.24-.42,2.16,1.17,4.37l2.15,3c1.6,2.27,2.62,4.89.55,8.49-3.06,5.3-8.43,5.81-14.08,2.55a28.55,28.55,0,0,1-5.9-4.66Z"/><path class="cls-3" d="M2134.48,267.33c5.26,3,8.7,9.73,3.52,18.7s-12.69,9.34-18,6.31-8.7-9.74-3.52-18.71S2129.21,264.29,2134.48,267.33Zm-11.83,20.32,0,0c2.73,1.58,5.83-.74,8.59-5.52s3.22-8.62.48-10.2-5.9.79-8.62,5.5S2119.91,286.07,2122.65,287.65Z"/><path class="cls-3" d="M2152.24,309.68a24.1,24.1,0,0,1-6.49-2.5c-7-4.06-9.64-11.15-4.74-19.64,4.12-7.13,11.21-10,19.14-5.39a17.34,17.34,0,0,1,5.21,4.49l-3.43,5.13a11.38,11.38,0,0,0-3.91-4.1c-4.15-2.4-7.65-.82-10.37,3.89-2.4,4.15-2,8.66,2.13,11a10,10,0,0,0,5.42,1.33Z"/><path class="cls-3" d="M2169.16,287.91l6.51,3.75-14,24.18-6.51-3.76Z"/><path class="cls-3" d="M2180,294.18l14.82,8.56-2.76,4.78-8.45-4.88-2.68,4.64,8,4.64-2.76,4.78-8-4.64-3,5.2,8.9,5.14-2.76,4.78-15.27-8.82Z"/><path class="cls-3" d="M2199.33,311.88l-5.2-3L2197,304l16.91,9.76-2.84,4.92-5.2-3-11.12,19.26-6.51-3.76Z"/><path class="cls-3" d="M2212.83,333.62l1.57-19.6,7.41,4.28-2,11.21.07,0,8.51-7.47,7.17,4.14-16.19,11.16-5.08,8.8-6.51-3.76Z"/><path class="cls-3" d="M2252.12,72.66V61.91c0-8.2,5.47-12.8,13.79-12.8,9.68,0,14.12,5.12,14.12,14v9.59Zm22.55-7.51V63.51c0-4.32-3.08-6.48-8.48-6.48-7.15,0-8.56,3.44-8.56,7.52v.6Z"/><path class="cls-3" d="M2252.12,45.26V37.75H2280v7.51Z"/><path class="cls-3" d="M2263.87,20.87V10H2279a21.19,21.19,0,0,1,1.56,8.44c0,8.59-5,15.07-14.28,15.07-8.44,0-14.59-5-14.59-15.43a21.88,21.88,0,0,1,1.12-7.24l5.95.4a11.49,11.49,0,0,0-1.55,6.12c0,5.8,3.67,8.39,9.11,8.39s8.56-2.75,8.56-6.27a4.92,4.92,0,0,0-.48-2.44h-5.28v3.8Z"/><path class="cls-3" d="M2252.12,5.3V-2.21H2280V5.3Z"/><path class="cls-3" d="M2427.16,20.33a14.64,14.64,0,0,0-6.31,1.71c-2.46,1.41-2.71,3-1.83,4.51s2.26,1.43,4.55,1.07l1.74-.26c4.88-.74,7.33.71,9.31,4.13,2.64,4.58.47,9.29-4.66,12.25a19.21,19.21,0,0,1-6.65,2.55l-2.46-4.9a13.67,13.67,0,0,0,5.68-1.67c1.94-1.12,2.66-2.6,1.8-4.09-.72-1.24-1.66-1.44-4.37-1.17l-3.67.37c-2.76.25-5.55-.17-7.63-3.77-3.06-5.3-.8-10.2,4.84-13.46a28.79,28.79,0,0,1,7-2.79Z"/><path class="cls-3" d="M2387.63,36.09a24.16,24.16,0,0,1,5.41-4.37c7-4.06,14.48-2.77,19.38,5.71,4.12,7.14,3,14.69-4.9,19.27A17.27,17.27,0,0,1,2401,59l-2.73-5.53a11.53,11.53,0,0,0,5.51-1.33c4.16-2.4,4.54-6.23,1.82-10.94-2.4-4.15-6.53-6-10.61-3.66a10,10,0,0,0-3.87,4Z"/><path class="cls-3" d="M2378.18,54l5.06-2.92-5.68-9.84,6.51-3.76,14,24.18-6.52,3.76-5.35-9.28L2381.1,59l5.36,9.28L2380,72.07l-14-24.18,6.51-3.76Z"/><path class="cls-3" d="M2365.81,80.78c-5.27,3-12.78,2.67-18-6.3s-1.74-15.66,3.52-18.7,12.78-2.67,18,6.3S2371.07,77.74,2365.81,80.78Zm-11.69-20.4,0,0c-2.74,1.58-2.28,5.42.48,10.2s5.86,7.1,8.59,5.52,2.27-5.51-.45-10.22S2356.86,58.8,2354.12,60.38Z"/><path class="cls-3" d="M2341.42,94.86c-5.26,3-12.77,2.67-18-6.3s-1.75-15.67,3.51-18.7,12.78-2.67,18,6.3S2346.69,91.82,2341.42,94.86Zm-11.69-20.4,0,0c-2.74,1.58-2.27,5.42.49,10.2s5.85,7.1,8.59,5.52,2.26-5.51-.45-10.22S2332.47,72.88,2329.73,74.46Z"/><path class="cls-3" d="M2326.8,102.75l-6.51,3.76-11.12-19.26-8,4.6-2.84-4.92,14.48-8.36Z"/><path class="cls-3" d="M2252.12,310.77V300c0-8.19,5.47-12.79,13.79-12.79,9.68,0,14.12,5.12,14.12,13.95v9.6Zm22.55-7.52v-1.64c0-4.31-3.08-6.47-8.48-6.47-7.15,0-8.56,3.43-8.56,7.51v.6Z"/><path class="cls-3" d="M2252.12,283.37v-7.52H2280v7.52Z"/><path class="cls-3" d="M2263.87,259V248.14H2279a21.19,21.19,0,0,1,1.56,8.44c0,8.59-5,15.07-14.28,15.07-8.44,0-14.59-5-14.59-15.43a21.88,21.88,0,0,1,1.12-7.24l5.95.4a11.49,11.49,0,0,0-1.55,6.12c0,5.79,3.67,8.39,9.11,8.39s8.56-2.76,8.56-6.27a4.92,4.92,0,0,0-.48-2.44h-5.28V259Z"/><path class="cls-3" d="M2252.12,243.41v-7.52H2280v7.52Z"/><path class="cls-3" d="M2257.79,226.77v6h-5.67V213.26h5.67v6H2280v7.51Z"/><path class="cls-3" d="M2274.11,196.82V205l5.92,1.8V214l-27.91-9.28v-8.27l27.91-8.88v7.76Zm-16.32,3.84v.07l11,3v-5.51Z"/><path class="cls-3" d="M2252.12,184.93v-7.52h22.23v-9.19H2280v16.71Z"/><path class="cls-3" d="M2300.66,150.19a14.56,14.56,0,0,0,4.63,4.61c2.46,1.42,3.94.85,4.82-.68s.11-2.66-1.34-4.47l-1.1-1.37c-3.08-3.86-3.06-6.71-1.08-10.14,2.64-4.57,7.81-5,12.94-2.09a19.47,19.47,0,0,1,5.54,4.49l-3,4.59a13.68,13.68,0,0,0-4.29-4.1c-1.94-1.11-3.58-1-4.44.49-.72,1.25-.41,2.16,1.17,4.37l2.15,3c1.61,2.26,2.63,4.89.55,8.49-3.06,5.3-8.43,5.8-14.07,2.54a28.62,28.62,0,0,1-5.91-4.66Z"/><path class="cls-3" d="M2340.69,148.27c5.27,3,8.7,9.73,3.52,18.7s-12.69,9.35-17.95,6.31-8.7-9.73-3.52-18.7S2335.43,145.23,2340.69,148.27Zm-11.82,20.33,0,0c2.74,1.58,5.83-.75,8.59-5.52s3.23-8.63.49-10.21-5.91.8-8.63,5.51S2326.13,167,2328.87,168.6Z"/><path class="cls-3" d="M2358.46,190.62a23.85,23.85,0,0,1-6.5-2.5c-7-4.06-9.63-11.15-4.73-19.64,4.12-7.13,11.2-10,19.13-5.39a17.44,17.44,0,0,1,5.22,4.49l-3.43,5.13a11.55,11.55,0,0,0-3.91-4.1c-4.16-2.4-7.65-.82-10.37,3.89-2.4,4.16-2,8.66,2.13,11a9.9,9.9,0,0,0,5.42,1.33Z"/><path class="cls-3" d="M2375.37,168.85l6.52,3.76-14,24.17-6.51-3.76Z"/><path class="cls-3" d="M2386.25,175.13l14.83,8.56-2.76,4.78-8.46-4.88-2.67,4.64,8,4.64-2.76,4.78-8-4.64-3,5.19,8.9,5.14-2.76,4.78-15.28-8.82Z"/><path class="cls-3" d="M2405.55,192.83l-5.2-3,2.84-4.92,16.9,9.76-2.84,4.91-5.19-3-11.12,19.25-6.51-3.76Z"/><path class="cls-3" d="M2419.05,214.57l1.57-19.6,7.41,4.28-2,11.2.07,0,8.51-7.46,7.17,4.14-16.18,11.15-5.08,8.8-6.51-3.76Z"/><path class="cls-3" d="M2427.16,258.44a14.6,14.6,0,0,0-6.31,1.7c-2.46,1.42-2.71,3-1.83,4.52s2.26,1.43,4.55,1.07l1.74-.26c4.88-.74,7.33.7,9.31,4.13,2.64,4.57.47,9.29-4.66,12.25a19.21,19.21,0,0,1-6.65,2.55l-2.47-4.9a13.67,13.67,0,0,0,5.69-1.67c1.94-1.12,2.66-2.6,1.8-4.09-.72-1.24-1.66-1.44-4.37-1.17l-3.67.37c-2.76.25-5.55-.17-7.63-3.77-3.06-5.3-.81-10.21,4.84-13.46a28.79,28.79,0,0,1,7-2.79Z"/><path class="cls-3" d="M2387.63,274.2a24.21,24.21,0,0,1,5.41-4.38c7-4.05,14.48-2.76,19.37,5.72,4.13,7.14,3,14.69-4.89,19.27a17.33,17.33,0,0,1-6.5,2.27l-2.73-5.53a11.56,11.56,0,0,0,5.51-1.34c4.16-2.39,4.54-6.22,1.82-10.93-2.4-4.15-6.53-6-10.62-3.66a10,10,0,0,0-3.86,4Z"/><path class="cls-3" d="M2378.18,292.08l5.06-2.92-5.68-9.84,6.51-3.76,14,24.18-6.52,3.76-5.36-9.29-5.05,2.92,5.36,9.29-6.51,3.75L2366,286l6.51-3.76Z"/><path class="cls-3" d="M2365.81,318.89c-5.27,3-12.78,2.67-18-6.3s-1.74-15.67,3.52-18.71,12.78-2.66,18,6.31S2371.07,315.85,2365.81,318.89Zm-11.69-20.4,0,0c-2.73,1.57-2.27,5.42.49,10.2s5.86,7.1,8.59,5.52,2.27-5.51-.45-10.22S2356.86,296.91,2354.12,298.49Z"/><path class="cls-3" d="M2341.42,333c-5.26,3-12.78,2.67-18-6.3S2321.72,311,2327,308s12.78-2.66,18,6.31S2346.69,329.93,2341.42,333Zm-11.69-20.4h0c-2.74,1.58-2.28,5.43.48,10.21s5.86,7.1,8.6,5.52,2.26-5.51-.46-10.22S2332.47,311,2329.73,312.57Z"/><path class="cls-3" d="M2326.8,340.86l-6.51,3.76-11.12-19.26-8,4.6-2.84-4.92,14.48-8.36Z"/><path class="cls-3" d="M2458.33,191.72V181c0-8.2,5.48-12.8,13.8-12.8,9.68,0,14.12,5.12,14.12,14v9.6Zm22.56-7.52v-1.64c0-4.32-3.08-6.48-8.48-6.48-7.16,0-8.56,3.44-8.56,7.52v.6Z"/><path class="cls-3" d="M2458.33,164.32V156.8h27.92v7.52Z"/><path class="cls-3" d="M2470.09,139.92V129.08h15.08a21.19,21.19,0,0,1,1.56,8.44c0,8.6-5,15.08-14.28,15.08-8.44,0-14.6-5-14.6-15.44a21.88,21.88,0,0,1,1.12-7.24l6,.4a11.49,11.49,0,0,0-1.56,6.12c0,5.8,3.68,8.4,9.12,8.4s8.56-2.76,8.56-6.28a4.92,4.92,0,0,0-.48-2.44h-5.28v3.8Z"/><path class="cls-3" d="M2458.33,124.36v-7.52h27.92v7.52Z"/><path class="cls-3" d="M2464,107.72v6h-5.68V94.2H2464v6h22.24v7.52Z"/><path class="cls-3" d="M2480.33,77.76V86l5.92,1.8V95l-27.92-9.28V77.4l27.92-8.88v7.76ZM2464,81.6v.08l11,3V79.16Z"/><path class="cls-3" d="M2458.33,65.88V58.36h22.24v-9.2h5.68V65.88Z"/><path class="cls-3" d="M2506.87,31.13a14.67,14.67,0,0,0,4.63,4.61c2.46,1.42,3.95.85,4.83-.68s.1-2.66-1.35-4.47l-1.1-1.37c-3.08-3.86-3.05-6.71-1.07-10.13,2.64-4.58,7.81-5.05,12.93-2.1a19.33,19.33,0,0,1,5.54,4.49l-3,4.59A13.62,13.62,0,0,0,2524,22c-1.94-1.12-3.58-1-4.44.48-.72,1.25-.42,2.16,1.17,4.37l2.15,3c1.6,2.26,2.63,4.89.55,8.49-3.06,5.3-8.43,5.8-14.08,2.54a28.58,28.58,0,0,1-5.9-4.65Z"/><path class="cls-3" d="M2546.91,29.21c5.26,3,8.7,9.74,3.52,18.71s-12.69,9.34-18,6.3-8.7-9.73-3.52-18.7S2541.65,26.18,2546.91,29.21Zm-11.83,20.33,0,0c2.73,1.58,5.83-.74,8.59-5.52s3.22-8.62.49-10.2-5.91.79-8.63,5.5S2532.35,48,2535.08,49.54Z"/><path class="cls-3" d="M2564.67,71.57a24.11,24.11,0,0,1-6.49-2.51c-7-4.06-9.64-11.15-4.74-19.63,4.12-7.14,11.21-10,19.14-5.4a17.48,17.48,0,0,1,5.21,4.49l-3.42,5.14a11.66,11.66,0,0,0-3.91-4.11c-4.16-2.4-7.66-.82-10.38,3.89-2.4,4.16-1.95,8.67,2.13,11a9.9,9.9,0,0,0,5.43,1.32Z"/><path class="cls-3" d="M2581.59,49.79l6.51,3.76-14,24.18L2567.63,74Z"/><path class="cls-3" d="M2592.47,56.07l14.82,8.56-2.76,4.78-8.45-4.88-2.68,4.64,8,4.64-2.76,4.78-8-4.64-3,5.2,8.9,5.14-2.76,4.78-15.27-8.82Z"/><path class="cls-3" d="M2611.76,73.77l-5.19-3,2.84-4.92,16.9,9.76-2.84,4.92-5.2-3-11.12,19.26L2600.64,93Z"/><path class="cls-3" d="M2625.26,95.51l1.57-19.6,7.41,4.28-2,11.2.07,0,8.51-7.46,7.17,4.14-16.19,11.16-5.08,8.8-6.51-3.76Z"/><path class="cls-3" d="M2633.37,139.39a14.63,14.63,0,0,0-6.31,1.7c-2.46,1.42-2.71,3-1.83,4.52s2.26,1.42,4.55,1.07l1.74-.26c4.88-.75,7.33.7,9.31,4.13,2.64,4.57.47,9.29-4.66,12.25a19.21,19.21,0,0,1-6.65,2.55l-2.46-4.91a13.64,13.64,0,0,0,5.68-1.66c1.94-1.12,2.66-2.6,1.8-4.09-.72-1.24-1.66-1.44-4.37-1.17l-3.67.36c-2.76.26-5.54-.16-7.63-3.77-3-5.3-.8-10.2,4.84-13.46a28.66,28.66,0,0,1,7-2.78Z"/><path class="cls-3" d="M2593.84,155.15a23.76,23.76,0,0,1,5.42-4.38c7-4.06,14.47-2.76,19.37,5.72,4.12,7.14,3,14.69-4.9,19.27a17.47,17.47,0,0,1-6.5,2.27l-2.73-5.53a11.56,11.56,0,0,0,5.51-1.34c4.16-2.4,4.54-6.22,1.82-10.93-2.4-4.15-6.53-6-10.61-3.66a10,10,0,0,0-3.87,4Z"/><path class="cls-3" d="M2584.39,173l5.06-2.92-5.68-9.84,6.51-3.76,14,24.17-6.51,3.76-5.36-9.28-5.06,2.92,5.36,9.28-6.51,3.76-14-24.17,6.51-3.76Z"/><path class="cls-3" d="M2572,199.84c-5.27,3-12.78,2.67-18-6.3s-1.74-15.67,3.52-18.71,12.78-2.66,18,6.31S2577.28,196.8,2572,199.84Zm-11.69-20.41,0,0c-2.74,1.58-2.28,5.43.48,10.21s5.86,7.1,8.59,5.52,2.27-5.51-.45-10.22S2563.07,177.85,2560.33,179.43Z"/><path class="cls-3" d="M2547.63,213.92c-5.26,3-12.77,2.67-18-6.3s-1.75-15.67,3.52-18.71,12.77-2.66,18,6.31S2552.9,210.88,2547.63,213.92Zm-11.69-20.41,0,0c-2.74,1.58-2.27,5.43.49,10.21s5.85,7.1,8.59,5.52,2.26-5.51-.45-10.22S2538.68,191.93,2535.94,193.51Z"/><path class="cls-3" d="M2533,221.8l-6.51,3.76-11.11-19.25-8,4.6-2.84-4.92,14.48-8.36Z"/><path class="cls-3" d="M2458.33,362.47V355h27.92v7.52Z"/><path class="cls-3" d="M2464,345.83v6h-5.68V332.31H2464v6h22.24v7.52Z"/><path class="cls-3" d="M2480.33,315.87v8.2l5.92,1.8v7.2l-27.92-9.28v-8.28l27.92-8.88v7.76ZM2464,319.71v.08l11,3v-5.52Z"/><path class="cls-3" d="M2458.33,304v-7.52h22.24v-9.2h5.68V304Z"/><path class="cls-3" d="M2506.87,269.24a14.67,14.67,0,0,0,4.63,4.61c2.46,1.42,3.95.85,4.83-.67s.1-2.67-1.35-4.47l-1.1-1.38c-3.08-3.86-3.05-6.7-1.07-10.13,2.64-4.57,7.81-5,12.93-2.09a19.16,19.16,0,0,1,5.54,4.49l-3,4.58a13.62,13.62,0,0,0-4.28-4.09c-1.94-1.12-3.58-1-4.44.49-.72,1.24-.42,2.16,1.17,4.37l2.15,3c1.6,2.27,2.63,4.89.55,8.49-3.06,5.3-8.43,5.8-14.08,2.54a28.58,28.58,0,0,1-5.9-4.65Z"/><path class="cls-3" d="M2546.91,267.33c5.26,3,8.7,9.73,3.52,18.7s-12.69,9.34-18,6.3-8.7-9.73-3.52-18.7S2541.65,264.29,2546.91,267.33Zm-11.83,20.32,0,0c2.73,1.58,5.83-.74,8.59-5.52s3.22-8.62.49-10.2-5.91.79-8.63,5.5S2532.35,286.07,2535.08,287.65Z"/><path class="cls-3" d="M2564.67,309.68a24.11,24.11,0,0,1-6.49-2.51c-7-4.06-9.64-11.15-4.74-19.63,4.12-7.14,11.21-10,19.14-5.39a17.51,17.51,0,0,1,5.21,4.48l-3.42,5.14a11.66,11.66,0,0,0-3.91-4.11c-4.16-2.4-7.66-.81-10.38,3.9-2.4,4.15-1.95,8.66,2.13,11a10,10,0,0,0,5.42,1.33Z"/><path class="cls-3" d="M2581.59,287.9l6.51,3.76-14,24.18-6.51-3.76Z"/><path class="cls-3" d="M2592.47,294.18l14.82,8.56-2.76,4.78-8.45-4.88-2.68,4.64,8,4.64-2.76,4.78-8-4.64-3,5.2,8.9,5.14-2.76,4.78-15.27-8.82Z"/><path class="cls-3" d="M2611.76,311.88l-5.19-3,2.84-4.92,16.9,9.76-2.84,4.92-5.2-3-11.12,19.26-6.51-3.76Z"/><path class="cls-3" d="M2625.26,333.62l1.57-19.6,7.41,4.28-2,11.2.07,0,8.51-7.46,7.17,4.14-16.19,11.16-5.08,8.8-6.51-3.76Z"/><path class="cls-3" d="M2664.55,72.66V61.91c0-8.2,5.47-12.8,13.79-12.8,9.68,0,14.12,5.12,14.12,14v9.59Zm22.55-7.51V63.51c0-4.32-3.08-6.48-8.48-6.48-7.16,0-8.56,3.44-8.56,7.52v.6Z"/><path class="cls-3" d="M2664.55,45.26V37.75h27.91v7.51Z"/><path class="cls-3" d="M2676.3,20.87V10h15.08a21.19,21.19,0,0,1,1.56,8.44c0,8.59-5,15.07-14.28,15.07-8.44,0-14.59-5-14.59-15.43a21.88,21.88,0,0,1,1.12-7.24l5.95.4a11.49,11.49,0,0,0-1.56,6.12c0,5.8,3.68,8.39,9.12,8.39s8.56-2.75,8.56-6.27a4.92,4.92,0,0,0-.48-2.44h-5.28v3.8Z"/><path class="cls-3" d="M2664.55,5.3V-2.21h27.91V5.3Z"/><path class="cls-3" d="M2839.59,20.33a14.64,14.64,0,0,0-6.31,1.71c-2.46,1.42-2.71,3-1.83,4.52s2.26,1.42,4.55,1.07l1.74-.27c4.88-.74,7.33.71,9.31,4.14,2.64,4.57.47,9.29-4.66,12.25a19.2,19.2,0,0,1-6.65,2.54l-2.46-4.9a13.67,13.67,0,0,0,5.68-1.67c1.94-1.12,2.66-2.59,1.8-4.08-.72-1.25-1.66-1.44-4.37-1.17l-3.67.36c-2.76.25-5.55-.17-7.63-3.77-3.06-5.3-.8-10.2,4.84-13.46a28.79,28.79,0,0,1,7-2.79Z"/><path class="cls-3" d="M2800.06,36.09a24.16,24.16,0,0,1,5.41-4.37c7-4.06,14.48-2.77,19.38,5.72,4.11,7.13,3,14.69-4.9,19.27a17.53,17.53,0,0,1-6.5,2.27l-2.73-5.54a11.53,11.53,0,0,0,5.51-1.33c4.16-2.4,4.54-6.22,1.82-10.93-2.4-4.16-6.53-6-10.62-3.67a10,10,0,0,0-3.86,4Z"/><path class="cls-3" d="M2790.61,54l5.06-2.92L2790,41.21l6.51-3.76,14,24.18-6.52,3.76-5.36-9.28-5,2.92,5.36,9.28-6.52,3.76-13.95-24.18,6.51-3.76Z"/><path class="cls-3" d="M2778.24,80.78c-5.27,3-12.78,2.67-18-6.3s-1.74-15.66,3.52-18.7,12.78-2.67,18,6.3S2783.5,77.75,2778.24,80.78Zm-11.69-20.4,0,0c-2.73,1.58-2.27,5.42.49,10.2s5.86,7.1,8.59,5.52,2.27-5.51-.45-10.22S2769.29,58.8,2766.55,60.38Z"/><path class="cls-3" d="M2753.85,94.86c-5.26,3-12.78,2.67-17.95-6.3s-1.75-15.66,3.51-18.7,12.78-2.67,18,6.3S2759.12,91.83,2753.85,94.86Zm-11.69-20.4,0,0c-2.74,1.58-2.27,5.42.49,10.2s5.85,7.1,8.59,5.52,2.26-5.51-.46-10.22S2744.9,72.88,2742.16,74.46Z"/><path class="cls-3" d="M2739.23,102.75l-6.51,3.76L2721.6,87.25l-8,4.6-2.84-4.92,14.48-8.36Z"/><path class="cls-3" d="M2664.55,310.77V300c0-8.19,5.47-12.79,13.79-12.79,9.68,0,14.12,5.12,14.12,13.95v9.6Zm22.55-7.52v-1.64c0-4.31-3.08-6.47-8.48-6.47-7.16,0-8.56,3.43-8.56,7.51v.6Z"/><path class="cls-3" d="M2664.55,283.37v-7.52h27.91v7.52Z"/><path class="cls-3" d="M2676.3,259V248.14h15.08a21.19,21.19,0,0,1,1.56,8.44c0,8.59-5,15.07-14.28,15.07-8.44,0-14.59-5-14.59-15.43a21.88,21.88,0,0,1,1.12-7.24l5.95.4a11.49,11.49,0,0,0-1.56,6.12c0,5.79,3.68,8.39,9.12,8.39s8.56-2.76,8.56-6.27a4.92,4.92,0,0,0-.48-2.44h-5.28V259Z"/><path class="cls-3" d="M2664.55,243.41v-7.52h27.91v7.52Z"/><path class="cls-3" d="M2670.22,226.77v6h-5.67V213.26h5.67v6h22.24v7.51Z"/><path class="cls-3" d="M2686.54,196.82V205l5.92,1.8V214l-27.91-9.28v-8.27l27.91-8.88v7.76Zm-16.32,3.84v.07l11,3v-5.51Z"/><path class="cls-3" d="M2664.55,184.93v-7.52h22.23v-9.19h5.68v16.71Z"/><path class="cls-3" d="M2713.09,150.18a14.57,14.57,0,0,0,4.63,4.62c2.46,1.42,3.94.84,4.82-.68s.11-2.66-1.34-4.47l-1.1-1.37c-3.08-3.86-3.06-6.71-1.08-10.14,2.64-4.57,7.81-5,12.94-2.09a19.3,19.3,0,0,1,5.54,4.49l-3,4.59a13.68,13.68,0,0,0-4.29-4.1c-1.94-1.12-3.58-1-4.44.49-.72,1.25-.41,2.16,1.17,4.37l2.16,3c1.6,2.26,2.62,4.88.54,8.49-3.06,5.3-8.43,5.8-14.07,2.54a28.21,28.21,0,0,1-5.9-4.66Z"/><path class="cls-3" d="M2753.12,148.27c5.27,3,8.7,9.73,3.52,18.7s-12.69,9.35-17.95,6.31-8.7-9.73-3.52-18.7S2747.86,145.23,2753.12,148.27ZM2741.3,168.6l0,0c2.74,1.58,5.83-.75,8.59-5.53s3.23-8.62.49-10.2-5.91.79-8.62,5.5S2738.56,167,2741.3,168.6Z"/><path class="cls-3" d="M2770.89,190.62a24,24,0,0,1-6.5-2.5c-7-4.06-9.63-11.15-4.73-19.64,4.12-7.13,11.2-10,19.13-5.39a17.44,17.44,0,0,1,5.22,4.49l-3.43,5.13a11.55,11.55,0,0,0-3.91-4.1c-4.16-2.4-7.65-.82-10.37,3.89-2.4,4.16-2,8.66,2.13,11a9.9,9.9,0,0,0,5.42,1.33Z"/><path class="cls-3" d="M2787.81,168.85l6.51,3.76-14,24.17-6.51-3.76Z"/><path class="cls-3" d="M2798.68,175.13l14.83,8.56-2.76,4.78-8.46-4.88-2.67,4.64,8,4.64-2.76,4.78-8-4.64-3,5.19,8.9,5.14-2.76,4.78-15.28-8.82Z"/><path class="cls-3" d="M2818,192.82l-5.2-3,2.84-4.91,16.9,9.76-2.84,4.91-5.19-3-11.12,19.26-6.51-3.76Z"/><path class="cls-3" d="M2831.48,214.56l1.57-19.59,7.41,4.28-2,11.2.07,0L2847,203l7.17,4.13L2838,218.32l-5.08,8.8-6.51-3.76Z"/><path class="cls-3" d="M2839.59,258.44a14.64,14.64,0,0,0-6.31,1.71c-2.46,1.42-2.71,3-1.83,4.51s2.26,1.43,4.55,1.08l1.74-.27c4.88-.74,7.33.71,9.31,4.13,2.64,4.58.47,9.29-4.66,12.25a19.21,19.21,0,0,1-6.65,2.55l-2.47-4.9a13.67,13.67,0,0,0,5.69-1.67c1.94-1.12,2.66-2.59,1.8-4.09-.72-1.24-1.67-1.44-4.37-1.17l-3.67.37c-2.76.25-5.55-.17-7.63-3.77-3.06-5.3-.81-10.2,4.84-13.46a28.79,28.79,0,0,1,7-2.79Z"/><path class="cls-3" d="M2800.05,274.2a24.43,24.43,0,0,1,5.42-4.37c7-4.06,14.48-2.77,19.37,5.71,4.12,7.14,3,14.69-4.9,19.27a17.25,17.25,0,0,1-6.49,2.27l-2.73-5.53a11.53,11.53,0,0,0,5.51-1.33c4.15-2.4,4.53-6.22,1.81-10.93-2.39-4.16-6.52-6-10.61-3.67a10,10,0,0,0-3.86,4Z"/><path class="cls-3" d="M2790.61,292.08l5-2.92-5.67-9.84,6.51-3.76,13.95,24.18-6.51,3.76-5.36-9.28-5,2.92,5.36,9.28-6.52,3.76L2778.42,286l6.51-3.76Z"/><path class="cls-3" d="M2778.24,318.89c-5.27,3-12.78,2.67-18-6.3s-1.74-15.66,3.52-18.7,12.78-2.67,17.95,6.3S2783.5,315.85,2778.24,318.89Zm-11.69-20.4,0,0c-2.73,1.58-2.27,5.42.49,10.2s5.86,7.1,8.59,5.52,2.27-5.51-.45-10.22S2769.28,296.91,2766.55,298.49Z"/><path class="cls-3" d="M2753.85,333c-5.27,3-12.78,2.67-18-6.3s-1.74-15.66,3.52-18.7,12.78-2.67,18,6.3S2759.11,329.93,2753.85,333Zm-11.69-20.4,0,0c-2.74,1.58-2.28,5.42.48,10.2s5.86,7.1,8.6,5.52,2.26-5.51-.46-10.22S2744.9,311,2742.16,312.57Z"/><path class="cls-3" d="M2739.23,340.86l-6.51,3.76-11.12-19.26-8,4.6L2710.8,325l14.47-8.36Z"/><path class="cls-3" d="M2870.76,191.72V181c0-8.2,5.48-12.8,13.8-12.8,9.68,0,14.12,5.12,14.12,14v9.6Zm22.56-7.52v-1.64c0-4.32-3.08-6.48-8.48-6.48-7.16,0-8.56,3.44-8.56,7.52v.6Z"/><path class="cls-3" d="M2870.76,164.32V156.8h27.92v7.52Z"/><path class="cls-3" d="M2882.52,139.92V129.08h15.08a21.19,21.19,0,0,1,1.56,8.44c0,8.6-5,15.08-14.28,15.08-8.44,0-14.6-5-14.6-15.44a21.88,21.88,0,0,1,1.12-7.24l6,.4a11.49,11.49,0,0,0-1.56,6.12c0,5.8,3.68,8.4,9.12,8.4s8.56-2.76,8.56-6.28a4.92,4.92,0,0,0-.48-2.44h-5.28v3.8Z"/><path class="cls-3" d="M2870.76,124.36v-7.52h27.92v7.52Z"/><path class="cls-3" d="M2876.44,107.72v6h-5.68V94.2h5.68v6h22.24v7.52Z"/><path class="cls-3" d="M2892.76,77.76V86l5.92,1.8V95l-27.92-9.28V77.4l27.92-8.88v7.76Zm-16.32,3.84v.08l11,3V79.16Z"/><path class="cls-3" d="M2870.76,65.88V58.36H2893v-9.2h5.68V65.88Z"/><path class="cls-3" d="M2919.3,31.13a14.67,14.67,0,0,0,4.63,4.61c2.46,1.42,4,.85,4.83-.68s.1-2.66-1.35-4.47l-1.1-1.37c-3.08-3.86-3-6.71-1.07-10.14,2.64-4.57,7.81-5,12.93-2.09a19.33,19.33,0,0,1,5.54,4.49l-3,4.59a13.62,13.62,0,0,0-4.28-4.09c-1.94-1.12-3.58-1-4.44.48-.72,1.25-.42,2.16,1.17,4.37l2.15,3c1.6,2.26,2.63,4.89.55,8.49-3.06,5.3-8.43,5.8-14.08,2.54a28.58,28.58,0,0,1-5.9-4.65Z"/><path class="cls-3" d="M2959.34,29.21c5.26,3,8.7,9.74,3.52,18.71s-12.69,9.34-18,6.3-8.69-9.73-3.52-18.7S2954.08,26.17,2959.34,29.21Zm-11.83,20.33,0,0c2.73,1.58,5.83-.74,8.59-5.52s3.22-8.63.49-10.21-5.91.8-8.63,5.51S2944.78,48,2947.51,49.54Z"/><path class="cls-3" d="M2977.1,71.56a23.78,23.78,0,0,1-6.49-2.5c-7-4.06-9.64-11.15-4.74-19.63,4.12-7.14,11.21-10,19.14-5.4a17.48,17.48,0,0,1,5.21,4.49l-3.42,5.14a11.57,11.57,0,0,0-3.91-4.11c-4.16-2.4-7.66-.82-10.38,3.89-2.4,4.16-2,8.67,2.13,11a9.93,9.93,0,0,0,5.43,1.33Z"/><path class="cls-3" d="M2994,49.79l6.51,3.76-14,24.17L2980.06,74Z"/><path class="cls-3" d="M3004.9,56.07l14.82,8.56L3017,69.41l-8.45-4.88-2.68,4.64,8,4.64-2.76,4.78-8-4.64-3,5.2,8.9,5.13-2.76,4.78-15.27-8.81Z"/><path class="cls-3" d="M3024.19,73.77l-5.19-3,2.84-4.92,16.9,9.76-2.84,4.92-5.2-3-11.11,19.25L3013.07,93Z"/><path class="cls-3" d="M3037.69,95.51l1.57-19.6,7.41,4.28-2,11.2.07,0,8.51-7.46,7.17,4.14L3044.2,99.27l-5.08,8.79-6.51-3.76Z"/><path class="cls-3" d="M3045.8,139.39a14.63,14.63,0,0,0-6.31,1.7c-2.46,1.42-2.7,3-1.82,4.52s2.25,1.42,4.54,1.07l1.74-.26c4.88-.74,7.34.7,9.32,4.13,2.63,4.57.46,9.29-4.66,12.25a19.26,19.26,0,0,1-6.66,2.55l-2.46-4.91a13.68,13.68,0,0,0,5.69-1.66c1.94-1.12,2.65-2.6,1.79-4.09-.72-1.24-1.66-1.44-4.37-1.17l-3.67.36c-2.76.26-5.54-.16-7.62-3.77-3.06-5.3-.81-10.2,4.83-13.46a28.66,28.66,0,0,1,7-2.78Z"/><path class="cls-3" d="M3006.27,155.15a23.76,23.76,0,0,1,5.42-4.38c7-4.06,14.47-2.76,19.37,5.72,4.12,7.14,3,14.69-4.9,19.27a17.45,17.45,0,0,1-6.49,2.27l-2.74-5.53a11.54,11.54,0,0,0,5.51-1.34c4.16-2.4,4.54-6.22,1.82-10.93-2.4-4.15-6.52-6-10.61-3.66a9.89,9.89,0,0,0-3.86,4Z"/><path class="cls-3" d="M2996.82,173l5.06-2.92-5.68-9.84,6.51-3.76,14,24.17-6.51,3.76-5.36-9.28-5.06,2.92,5.36,9.28-6.51,3.76-14-24.17,6.51-3.76Z"/><path class="cls-3" d="M2984.45,199.84c-5.26,3-12.78,2.67-17.95-6.3s-1.75-15.67,3.51-18.71,12.78-2.66,18,6.31S2989.72,196.8,2984.45,199.84Zm-11.69-20.41,0,0c-2.74,1.58-2.27,5.43.49,10.21s5.85,7.1,8.59,5.52,2.26-5.51-.45-10.22S2975.5,177.86,2972.76,179.43Z"/><path class="cls-3" d="M2960.06,213.92c-5.26,3-12.77,2.67-17.95-6.3s-1.75-15.67,3.52-18.71,12.77-2.66,17.95,6.31S2965.33,210.88,2960.06,213.92Zm-11.68-20.41,0,0c-2.73,1.58-2.27,5.43.49,10.21s5.85,7.1,8.59,5.52,2.27-5.51-.45-10.22S2951.11,191.93,2948.38,193.51Z"/><path class="cls-3" d="M2945.45,221.8l-6.51,3.76-11.12-19.25-8,4.6L2917,206l14.48-8.36Z"/><path class="cls-3" d="M2870.76,362.47V355h27.92v7.52Z"/><path class="cls-3" d="M2876.44,345.83v6h-5.68V332.31h5.68v6h22.24v7.52Z"/><path class="cls-3" d="M2892.76,315.87v8.2l5.92,1.8v7.2l-27.92-9.28v-8.28l27.92-8.88v7.76Zm-16.32,3.84v.08l11,3v-5.52Z"/><path class="cls-3" d="M2870.76,304v-7.52H2893v-9.2h5.68V304Z"/><path class="cls-3" d="M2919.3,269.24a14.72,14.72,0,0,0,4.64,4.61c2.45,1.42,3.94.85,4.82-.67s.11-2.67-1.35-4.47l-1.09-1.38c-3.09-3.86-3.06-6.7-1.08-10.13,2.64-4.57,7.81-5,12.94-2.09a19.26,19.26,0,0,1,5.53,4.49l-3,4.58a13.77,13.77,0,0,0-4.29-4.09c-1.94-1.12-3.58-1-4.44.49-.72,1.24-.42,2.16,1.17,4.37l2.15,3c1.6,2.27,2.63,4.89.55,8.49-3.06,5.3-8.43,5.8-14.08,2.54a28.87,28.87,0,0,1-5.9-4.65Z"/><path class="cls-3" d="M2959.34,267.33c5.27,3,8.7,9.73,3.52,18.7s-12.69,9.34-18,6.3-8.69-9.73-3.51-18.7S2954.08,264.29,2959.34,267.33Zm-11.83,20.32,0,0c2.74,1.58,5.83-.74,8.59-5.52s3.22-8.62.49-10.2-5.91.79-8.63,5.5S2944.78,286.07,2947.51,287.65Z"/><path class="cls-3" d="M2977.11,309.68a24.05,24.05,0,0,1-6.5-2.51c-7-4.06-9.64-11.15-4.74-19.63,4.12-7.14,11.21-10,19.14-5.39a17.37,17.37,0,0,1,5.21,4.48l-3.42,5.14a11.56,11.56,0,0,0-3.91-4.11c-4.16-2.4-7.66-.81-10.38,3.9-2.4,4.15-2,8.66,2.14,11a10,10,0,0,0,5.42,1.33Z"/><path class="cls-3" d="M2994,287.9l6.51,3.76-14,24.18-6.52-3.76Z"/><path class="cls-3" d="M3004.9,294.18l14.82,8.56-2.76,4.78-8.45-4.88-2.68,4.64,8,4.64-2.76,4.78-8-4.64-3,5.2,8.9,5.14-2.76,4.78-15.27-8.82Z"/><path class="cls-3" d="M3024.19,311.88l-5.19-3,2.84-4.92,16.9,9.76-2.84,4.92-5.19-3-11.12,19.26-6.51-3.76Z"/><path class="cls-3" d="M3037.69,333.62l1.57-19.6,7.41,4.28-2,11.2.07,0,8.51-7.46,7.17,4.14-16.19,11.16-5.08,8.8-6.51-3.76Z"/><path class="cls-3" d="M3077,72.66V61.91c0-8.2,5.47-12.8,13.79-12.8,9.68,0,14.12,5.12,14.12,14v9.59Zm22.55-7.51V63.51c0-4.32-3.08-6.48-8.48-6.48-7.16,0-8.56,3.44-8.56,7.52v.6Z"/><path class="cls-3" d="M3077,45.26V37.75h27.91v7.51Z"/><path class="cls-3" d="M3088.73,20.87V10h15.08a21.19,21.19,0,0,1,1.56,8.44c0,8.59-5,15.07-14.28,15.07-8.44,0-14.59-5-14.59-15.43a21.61,21.61,0,0,1,1.12-7.24l6,.4a11.49,11.49,0,0,0-1.56,6.12c0,5.8,3.68,8.39,9.12,8.39s8.56-2.75,8.56-6.27a4.92,4.92,0,0,0-.48-2.44h-5.28v3.8Z"/><path class="cls-3" d="M3077,5.3V-2.21h27.91V5.3Z"/><path class="cls-3" d="M3252,20.33a14.68,14.68,0,0,0-6.31,1.71c-2.46,1.42-2.7,3-1.82,4.52s2.25,1.42,4.54,1.07l1.74-.27c4.88-.74,7.33.71,9.31,4.14,2.64,4.57.47,9.29-4.65,12.25a19.54,19.54,0,0,1-6.66,2.55l-2.46-4.91a13.67,13.67,0,0,0,5.68-1.67c1.94-1.12,2.66-2.59,1.8-4.08-.72-1.25-1.66-1.44-4.37-1.17l-3.67.36c-2.76.25-5.54-.17-7.62-3.77-3.06-5.3-.81-10.2,4.83-13.46a28.79,28.79,0,0,1,7-2.79Z"/><path class="cls-3" d="M3212.49,36.09a24,24,0,0,1,5.42-4.37c7-4.06,14.47-2.77,19.37,5.72,4.12,7.13,3,14.69-4.9,19.27a17.47,17.47,0,0,1-6.5,2.27l-2.73-5.54a11.53,11.53,0,0,0,5.51-1.33c4.16-2.4,4.54-6.22,1.82-10.93-2.4-4.16-6.53-6-10.61-3.67a10,10,0,0,0-3.86,4Z"/><path class="cls-3" d="M3203,54l5.06-2.92-5.68-9.84,6.51-3.76,14,24.18-6.51,3.76L3211,56.11,3206,59l5.36,9.28-6.51,3.76-14-24.18,6.51-3.76Z"/><path class="cls-3" d="M3190.67,80.78c-5.26,3-12.78,2.67-18-6.3s-1.74-15.66,3.52-18.7,12.78-2.67,18,6.3S3195.94,77.75,3190.67,80.78ZM3179,60.38l0,0c-2.74,1.58-2.28,5.42.48,10.2s5.86,7.1,8.6,5.52,2.26-5.51-.46-10.22S3181.72,58.8,3179,60.38Z"/><path class="cls-3" d="M3166.28,94.86c-5.26,3-12.77,2.67-18-6.3s-1.75-15.66,3.52-18.7,12.77-2.67,18,6.3S3171.55,91.83,3166.28,94.86Zm-11.69-20.4,0,0c-2.74,1.58-2.27,5.42.49,10.2s5.85,7.1,8.59,5.52,2.27-5.51-.45-10.22S3157.33,72.88,3154.59,74.46Z"/><path class="cls-3" d="M3151.67,102.75l-6.52,3.76L3134,87.25l-8,4.6-2.84-4.92,14.48-8.36Z"/><path class="cls-3" d="M3077,310.77V300c0-8.19,5.47-12.79,13.79-12.79,9.68,0,14.12,5.12,14.12,13.95v9.6Zm22.55-7.52v-1.64c0-4.31-3.08-6.47-8.48-6.47-7.16,0-8.56,3.43-8.56,7.51v.6Z"/><path class="cls-3" d="M3077,283.37v-7.52h27.91v7.52Z"/><path class="cls-3" d="M3088.73,259V248.14h15.08a21.19,21.19,0,0,1,1.56,8.44c0,8.59-5,15.07-14.28,15.07-8.44,0-14.59-5-14.59-15.43a21.61,21.61,0,0,1,1.12-7.24l6,.4a11.49,11.49,0,0,0-1.56,6.12c0,5.79,3.68,8.39,9.12,8.39s8.56-2.76,8.56-6.27a4.92,4.92,0,0,0-.48-2.44h-5.28V259Z"/><path class="cls-3" d="M3077,243.41v-7.52h27.91v7.52Z"/><path class="cls-3" d="M3082.65,226.77v6H3077V213.26h5.67v6h22.24v7.51Z"/><path class="cls-3" d="M3099,196.82V205l5.92,1.8V214L3077,204.73v-8.27l27.91-8.88v7.76Zm-16.32,3.84v.07l11,3v-5.51Z"/><path class="cls-3" d="M3077,184.93v-7.52h22.23v-9.19h5.68v16.71Z"/><path class="cls-3" d="M3125.52,150.18a14.67,14.67,0,0,0,4.63,4.62c2.46,1.42,3.95.84,4.83-.68s.1-2.66-1.35-4.47l-1.1-1.37c-3.08-3.86-3.05-6.71-1.07-10.14,2.63-4.57,7.81-5,12.93-2.09a19.3,19.3,0,0,1,5.54,4.49l-3,4.58a13.78,13.78,0,0,0-4.29-4.09c-1.94-1.12-3.57-1-4.43.49-.72,1.25-.42,2.16,1.17,4.37l2.15,3c1.6,2.26,2.62,4.88.55,8.49-3.06,5.3-8.43,5.8-14.08,2.54a28.55,28.55,0,0,1-5.9-4.66Z"/><path class="cls-3" d="M3165.56,148.27c5.26,3,8.69,9.73,3.52,18.7s-12.7,9.35-18,6.31-8.7-9.73-3.52-18.71S3160.29,145.23,3165.56,148.27Zm-11.83,20.33,0,0c2.73,1.58,5.83-.75,8.59-5.53s3.22-8.62.48-10.2-5.9.79-8.62,5.5S3151,167,3153.73,168.6Z"/><path class="cls-3" d="M3183.32,190.62a24,24,0,0,1-6.5-2.5c-7-4.06-9.63-11.15-4.73-19.64,4.12-7.13,11.21-10,19.14-5.39a17.48,17.48,0,0,1,5.21,4.49l-3.43,5.13a11.46,11.46,0,0,0-3.91-4.1c-4.15-2.4-7.65-.82-10.37,3.89-2.4,4.16-1.95,8.66,2.13,11a9.9,9.9,0,0,0,5.42,1.33Z"/><path class="cls-3" d="M3200.24,168.85l6.51,3.76-14,24.17-6.51-3.76Z"/><path class="cls-3" d="M3211.12,175.13l14.82,8.56-2.76,4.78-8.45-4.88-2.68,4.64,8,4.64-2.75,4.78-8-4.64-3,5.19,8.9,5.14-2.76,4.78-15.27-8.82Z"/><path class="cls-3" d="M3230.41,192.82l-5.2-3,2.84-4.91,16.91,9.75-2.84,4.92-5.2-3-11.12,19.26-6.51-3.76Z"/><path class="cls-3" d="M3243.91,214.56l1.57-19.59,7.41,4.28-2,11.2.06,0,8.52-7.46,7.17,4.13-16.19,11.16-5.08,8.8-6.51-3.76Z"/><path class="cls-3" d="M3252,258.44a14.64,14.64,0,0,0-6.31,1.71c-2.46,1.42-2.71,3-1.83,4.51s2.26,1.43,4.55,1.08l1.74-.27c4.88-.74,7.33.71,9.31,4.13,2.64,4.58.47,9.29-4.66,12.25a19.21,19.21,0,0,1-6.65,2.55l-2.46-4.9a13.67,13.67,0,0,0,5.68-1.67c1.94-1.12,2.66-2.59,1.8-4.08-.72-1.25-1.66-1.45-4.37-1.18l-3.67.37c-2.76.25-5.55-.17-7.62-3.77-3.07-5.3-.81-10.2,4.83-13.46a28.79,28.79,0,0,1,7-2.79Z"/><path class="cls-3" d="M3212.49,274.2a24,24,0,0,1,5.42-4.37c7-4.06,14.47-2.77,19.37,5.71,4.12,7.14,3,14.69-4.9,19.27a17.27,17.27,0,0,1-6.5,2.27l-2.73-5.53a11.53,11.53,0,0,0,5.51-1.33c4.16-2.4,4.54-6.22,1.82-10.93-2.4-4.16-6.53-6-10.61-3.67a10,10,0,0,0-3.87,4Z"/><path class="cls-3" d="M3203,292.08l5.06-2.92-5.68-9.84,6.51-3.76,14,24.18-6.52,3.76-5.35-9.28-5.06,2.92,5.36,9.28-6.51,3.76-14-24.18,6.51-3.76Z"/><path class="cls-3" d="M3190.67,318.89c-5.27,3-12.78,2.67-18-6.3s-1.74-15.66,3.52-18.7,12.78-2.67,18,6.3S3195.93,315.85,3190.67,318.89ZM3179,298.49l0,0c-2.74,1.58-2.28,5.42.48,10.2s5.86,7.1,8.59,5.52,2.27-5.51-.45-10.22S3181.72,296.91,3179,298.49Z"/><path class="cls-3" d="M3166.28,333c-5.26,3-12.77,2.67-18-6.3s-1.75-15.66,3.51-18.7,12.78-2.67,18,6.3S3171.55,329.93,3166.28,333Zm-11.69-20.4,0,0c-2.74,1.58-2.27,5.42.49,10.2s5.85,7.1,8.59,5.52,2.26-5.51-.45-10.22S3157.33,311,3154.59,312.57Z"/><path class="cls-3" d="M3151.66,340.86l-6.51,3.76L3134,325.36l-8,4.6-2.84-4.92,14.48-8.36Z"/><path class="cls-3" d="M3283.19,191.72V181c0-8.2,5.48-12.8,13.8-12.8,9.68,0,14.12,5.12,14.12,14v9.6Zm22.56-7.52v-1.64c0-4.32-3.08-6.48-8.48-6.48-7.16,0-8.56,3.44-8.56,7.52v.6Z"/><path class="cls-3" d="M3283.19,164.32V156.8h27.92v7.52Z"/><path class="cls-3" d="M3295,139.92V129.08H3310a21.22,21.22,0,0,1,1.55,8.44c0,8.6-4.95,15.08-14.27,15.08-8.44,0-14.6-5-14.6-15.44a21.88,21.88,0,0,1,1.12-7.24l6,.4a11.49,11.49,0,0,0-1.56,6.12c0,5.8,3.68,8.4,9.12,8.4s8.56-2.76,8.56-6.28a4.92,4.92,0,0,0-.48-2.44h-5.28v3.8Z"/><path class="cls-3" d="M3283.19,124.36v-7.52h27.92v7.52Z"/><path class="cls-3" d="M3288.87,107.72v6h-5.68V94.2h5.68v6h22.24v7.52Z"/><path class="cls-3" d="M3305.19,77.76V86l5.92,1.8V95l-27.92-9.28V77.4l27.92-8.88v7.76Zm-16.32,3.84v.08l11,3V79.16Z"/><path class="cls-3" d="M3283.19,65.88V58.36h22.24v-9.2h5.68V65.88Z"/><path class="cls-3" d="M3283.19,362.47V355h27.92v7.52Z"/><path class="cls-3" d="M3288.87,345.83v6h-5.68V332.31h5.68v6h22.24v7.52Z"/><path class="cls-3" d="M3305.19,315.87v8.2l5.92,1.8v7.2l-27.92-9.28v-8.28l27.92-8.88v7.76Zm-16.32,3.84v.08l11,3v-5.52Z"/><path class="cls-3" d="M3283.19,304v-7.52h22.24v-9.2h5.68V304Z"/></g></svg>