<svg id="Layer_1" data-name="Layer 1" xmlns="http://www.w3.org/2000/svg" xmlns:xlink="http://www.w3.org/1999/xlink" width="118.16mm" height="118.16mm" viewBox="0 0 334.94 334.94"><defs><style>.cls-1{fill:url(#linear-gradient);}.cls-2{fill:url(#linear-gradient-2);}.cls-3{fill:url(#linear-gradient-3);}.cls-4{fill:url(#linear-gradient-4);}.cls-5{opacity:0.2;}.cls-6{fill:#333;}.cls-7{fill:url(#linear-gradient-5);}.cls-8{fill:#1a1a1a;}.cls-9{fill:url(#linear-gradient-6);}.cls-10{fill:url(#linear-gradient-7);}.cls-11{fill:none;stroke:#000;stroke-linecap:round;stroke-miterlimit:10;stroke-width:5px;}</style><linearGradient id="linear-gradient" x1="167.41" y1="39.48" x2="167.41" y2="328.79" gradientUnits="userSpaceOnUse"><stop offset="0" stop-color="#fff"/><stop offset="0.76" stop-color="#ccc"/><stop offset="1" stop-color="#666"/></linearGradient><linearGradient id="linear-gradient-2" x1="163.93" y1="102.24" x2="163.93" y2="328.79" gradientUnits="userSpaceOnUse"><stop offset="0" stop-color="#de081a"/><stop offset="0.81" stop-color="#8b081a"/><stop offset="1" stop-color="#54081a"/></linearGradient><linearGradient id="linear-gradient-3" x1="325.45" y1="124.57" x2="298.68" y2="124.57" gradientUnits="userSpaceOnUse"><stop offset="0" stop-color="#8d081a"/><stop offset="1" stop-color="#5b081a"/></linearGradient><linearGradient id="linear-gradient-4" x1="9.37" y1="124.57" x2="36.14" y2="124.57" gradientTransform="translate(45.51 249.14) rotate(180)" xlink:href="#linear-gradient-3"/><linearGradient id="linear-gradient-5" x1="167.41" y1="67.11" x2="167.41" y2="185.85" gradientUnits="userSpaceOnUse"><stop offset="0" stop-color="#fff"/><stop offset="1" stop-color="#ccc"/></linearGradient><linearGradient id="linear-gradient-6" x1="167.41" y1="4.01" x2="167.41" y2="57.57" gradientUnits="userSpaceOnUse"><stop offset="0" stop-color="#de081a"/><stop offset="1" stop-color="#77081a"/></linearGradient><linearGradient id="linear-gradient-7" x1="205.93" y1="240.89" x2="266.96" y2="240.89" xlink:href="#linear-gradient-5"/></defs><title>Jax (2)</title><circle class="cls-1" cx="167.41" cy="184.13" r="144.66"/><path class="cls-2" d="M91.34,102.24V307.18a144.75,144.75,0,0,0,145.17,4.06v-209Z"/><path class="cls-3" d="M298.68,88h0a26.77,26.77,0,0,1,26.77,26.77v19.51a26.77,26.77,0,0,1-26.77,26.77h0a0,0,0,0,1,0,0V88A0,0,0,0,1,298.68,88Z"/><path class="cls-4" d="M9.37,88h0a26.77,26.77,0,0,1,26.77,26.77v19.51A26.77,26.77,0,0,1,9.37,161.09h0a0,0,0,0,1,0,0V88A0,0,0,0,1,9.37,88Z" transform="translate(45.51 249.14) rotate(-180)"/><path class="cls-5" d="M81.23,214.9c23.89-5.45,122.89-25.68,189.87-4a6.83,6.83,0,0,0,8.92-6.06l2.15-32.52a6.85,6.85,0,0,0-7.12-7.29l-208.6,9a6.84,6.84,0,0,0-5.89,9.76l13,27.37A6.83,6.83,0,0,0,81.23,214.9Z"/><rect class="cls-6" x="36.14" y="57.57" width="262.54" height="137.83" rx="33.89"/><rect class="cls-7" x="45.65" y="67.11" width="243.53" height="118.74" rx="23.13"/><path class="cls-8" d="M196.43,195.4H130.3V182.13a9.39,9.39,0,0,1,8.19-9.31l6.1-.79a146.57,146.57,0,0,1,37.55,0l6.1.79a9.38,9.38,0,0,1,8.19,9.31Z"/><path class="cls-9" d="M188.85,12.3a3.66,3.66,0,0,0-2-3.82,44.31,44.31,0,0,0-38.79,0A3.67,3.67,0,0,0,146,12.3l6.38,45.27h30.12Z"/><rect x="179.45" y="121.73" width="9.52" height="9.52"/><rect x="217.41" y="102.69" width="9.52" height="9.52" transform="translate(329.62 -114.72) rotate(90)"/><rect x="207.9" y="102.69" width="9.52" height="9.52" transform="translate(320.11 -105.2) rotate(90)"/><rect x="198.38" y="102.69" width="9.52" height="9.52" transform="translate(310.59 -95.69) rotate(90)"/><circle class="cls-10" cx="236.44" cy="240.89" r="30.52"/><path class="cls-11" d="M236.44,215.32a25.57,25.57,0,1,1-25.56,25.57"/><path d="M218.64,254.7c4.25,1.4,10,2,11.74,7.05,1,3,5.88,1.72,4.82-1.33s-3.24-5.08-5.77-7c-2.88-2.21-6.12-2.42-9.46-3.52-3.07-1-4.38,3.83-1.33,4.82Z"/><path d="M241.43,264.38c.76-1.5,1.41-3.79,2.65-4.93s2.61-.15,4.27-.37c3.25-.43,3.2-5.24,6.84-4.08,3.07,1,4.39-3.85,1.33-4.82-2.25-.72-4.59-1.05-6.63.4a6.94,6.94,0,0,0-1.51,1.55,10.62,10.62,0,0,0-1,1.58c0,.55-.31.52-1-.08-1.9,0-3.17-.07-4.77,1.14-2.24,1.7-3.28,4.66-4.51,7.09-1.45,2.86,2.86,5.39,4.31,2.52Z"/><path d="M224.65,234c-.91,2.48-2.9,5.72-2.54,8.48.14,1.08.82,1.65,1.18,2.59a4.52,4.52,0,0,1,.38,2.43c.08,5.42,5.29,6.73,9.87,5.52,4-1.06,7-5.54,6-9.59-.59-2.3-1.74-6.37-3.17-8.24-1.74-2.26-5.75-2.07-7.21-4.38l-1.5,3.67a19.42,19.42,0,0,0,6.52-3.46c3.77-2.65,7.09-2.41,11.34-1.34,3.12.79,4.46-4,1.33-4.82-3.61-.91-7.4-1.75-11.05-.51s-5.83,4.39-9.46,5.31a2.52,2.52,0,0,0-1.5,3.67c1.77,2.81,5.47,2.55,7.35,4.78,1,1.22,1.19,3.79,1.8,5.27.79,1.92,1.08,2.52-.73,4a2.71,2.71,0,0,1-2.91,1c-1.55-.15-2.08-.88-1.59-2.2-.24-1.15-.28-2-.62-3.11s-.76-1.05-.79-1.92c-.05-1.58,1.58-4.28,2.14-5.79,1.11-3-3.72-4.33-4.83-1.33Z"/><path d="M254.22,230.77c-.22-.91-.76-2.62-1.71-3.11s.38,3,.53,4c.38,2.65.61,3.61-1.59,5.48s-2.61,1.67-5.12,1.13a21.3,21.3,0,0,1-4.86-1.83,15.72,15.72,0,0,0-5.49-1.85c-1.88-.21-3.13,2.29-2.16,3.76,2.1,3.19,8.62,7.7,8.41,11.75l1.23-2.16c-.31.18-3.17-2-3.46-2.17-2.6-1.91-5.1,2.43-2.53,4.31s8.33,5.11,9.71.35c1.54-5.3-6.65-11-9-14.6L236,239.58c3.27.38,6.48,3,9.84,3.69a14.53,14.53,0,0,0,7.35-.06c5.76-1.94,5.51-7.9,4.69-12.89-.61-3.73-3.77-8.84-8.36-6.88a4.22,4.22,0,0,0-2.61,3.32c-.27,2.48,2,3.21,2.51,5.34.77,3.12,5.59,1.8,4.82-1.33Z"/><path d="M215.83,236.06a10.54,10.54,0,0,1-3.57-4.23l-1.49,3.67a61.14,61.14,0,0,1,6.27-1.29,2.52,2.52,0,0,0,1.75-3.08,2.56,2.56,0,0,0-3.08-1.74,56.22,56.22,0,0,0-6.27,1.29,2.53,2.53,0,0,0-1.49,3.67,15.5,15.5,0,0,0,5.36,6c2.67,1.8,5.18-2.53,2.52-4.32Z"/><path d="M212.87,226.22a19,19,0,0,0,2.68,2.31c.37.26.8.47,1.15.77a3.57,3.57,0,0,1,.27.28c0-.05,0-.74-.06,0a2.5,2.5,0,0,0,5,0c.23-3.51-3.46-4.8-5.51-6.93-2.23-2.33-5.76,1.21-3.53,3.53Z"/><path d="M223.81,224.41c-.46-2-.18-4.14-.68-6.14l-3.08,3.08a21.82,21.82,0,0,1,2.84.91,12.8,12.8,0,0,0,2.24,1.06c3.11.83,4.44-4,1.33-4.82-.74-.19-1.49-.79-2.24-1.07-.93-.34-1.9-.61-2.84-.9a2.52,2.52,0,0,0-3.07,3.07,19.58,19.58,0,0,1,.13,2.67,27,27,0,0,0,.55,3.47c.72,3.14,5.54,1.81,4.82-1.33Z"/><path d="M231.79,220.33c.92-1.69,1.86-3.37,2.8-5L229.93,214v.16a2.55,2.55,0,0,0,2.5,2.5,2.52,2.52,0,0,0,2.5-2.5V214c-.12-2.4-3.38-3.52-4.65-1.27q-1.42,2.52-2.8,5c-1.54,2.83,2.77,5.36,4.31,2.53Z"/><path d="M226.53,214.58c1,2.46,3.56,4,5.54,5.59a2.57,2.57,0,0,0,3.54,0,2.51,2.51,0,0,0,0-3.53l-2.56-2.1-1.14-.93c-.15-.13-.73-.79-.56-.36a2.58,2.58,0,0,0-3.08-1.74,2.51,2.51,0,0,0-1.74,3.07Z"/><path class="cls-5" d="M317.5,93.17l-18.82,33.31v34.61s14.34,1.81,21.12-7.34,5.65-18.12,5.65-25.35,1.22-25.9-4.18-31.18S317.5,93.17,317.5,93.17Z"/><rect x="179.45" y="121.73" width="9.52" height="9.52"/><rect x="236.44" y="121.73" width="9.52" height="9.52"/><rect x="217.41" y="102.69" width="9.52" height="9.52" transform="translate(329.62 -114.72) rotate(90)"/><rect x="226.93" y="112.21" width="9.52" height="9.52" transform="translate(348.65 -114.72) rotate(90)"/><rect x="207.9" y="102.69" width="9.52" height="9.52" transform="translate(320.11 -105.2) rotate(90)"/><rect x="198.38" y="102.69" width="9.52" height="9.52" transform="translate(310.59 -95.69) rotate(90)"/><rect x="188.86" y="112.21" width="9.52" height="9.52" transform="translate(310.59 -76.65) rotate(90)"/><rect x="145.86" y="121.73" width="9.52" height="9.52" transform="translate(301.24 252.97) rotate(-180)"/><rect x="88.87" y="121.73" width="9.52" height="9.52" transform="translate(187.25 252.97) rotate(-180)"/><rect x="107.9" y="102.69" width="9.52" height="9.52" transform="translate(220.11 -5.2) rotate(90)"/><rect x="98.38" y="112.21" width="9.52" height="9.52" transform="translate(220.11 13.83) rotate(90)"/><rect x="117.41" y="102.69" width="9.52" height="9.52" transform="translate(229.62 -14.72) rotate(90)"/><rect x="126.93" y="102.69" width="9.52" height="9.52" transform="translate(239.14 -24.23) rotate(90)"/><rect x="136.44" y="112.21" width="9.52" height="9.52" transform="translate(258.17 -24.23) rotate(90)"/></svg>