<svg id="Layer_1" data-name="Layer 1" xmlns="http://www.w3.org/2000/svg" xmlns:xlink="http://www.w3.org/1999/xlink" width="200mm" height="200mm" viewBox="0 0 566.93 566.93"><defs><style>.cls-1{fill:url(#linear-gradient);}.cls-2{fill:url(#linear-gradient-2);}.cls-3{fill:url(#linear-gradient-3);}.cls-4{fill:url(#linear-gradient-4);}.cls-5{fill:url(#linear-gradient-5);}.cls-6{opacity:0.2;}.cls-7{fill:#333;}.cls-8{fill:url(#linear-gradient-6);}.cls-9{fill:#1a1a1a;}.cls-10{fill:url(#linear-gradient-7);}.cls-11{fill:url(#linear-gradient-8);}.cls-12{fill:none;stroke:#000;stroke-linecap:round;stroke-miterlimit:10;stroke-width:5px;}</style><linearGradient id="linear-gradient" x1="283.46" x2="283.46" y2="566.93" gradientUnits="userSpaceOnUse"><stop offset="0" stop-color="#de081a"/><stop offset="0.76" stop-color="#8b081a"/><stop offset="1" stop-color="#8b081a"/></linearGradient><linearGradient id="linear-gradient-2" x1="287.51" y1="139.83" x2="287.51" y2="429.14" gradientUnits="userSpaceOnUse"><stop offset="0" stop-color="#fff"/><stop offset="0.76" stop-color="#ccc"/><stop offset="1" stop-color="#666"/></linearGradient><linearGradient id="linear-gradient-3" x1="284.02" y1="202.59" x2="284.02" y2="429.14" gradientUnits="userSpaceOnUse"><stop offset="0" stop-color="#de081a"/><stop offset="0.81" stop-color="#8b081a"/><stop offset="1" stop-color="#54081a"/></linearGradient><linearGradient id="linear-gradient-4" x1="445.55" y1="224.92" x2="418.78" y2="224.92" gradientUnits="userSpaceOnUse"><stop offset="0" stop-color="#8d081a"/><stop offset="1" stop-color="#5b081a"/></linearGradient><linearGradient id="linear-gradient-5" x1="129.47" y1="224.92" x2="156.24" y2="224.92" gradientTransform="translate(285.71 449.84) rotate(-180)" xlink:href="#linear-gradient-4"/><linearGradient id="linear-gradient-6" x1="287.51" y1="167.46" x2="287.51" y2="286.21" gradientUnits="userSpaceOnUse"><stop offset="0" stop-color="#fff"/><stop offset="1" stop-color="#ccc"/></linearGradient><linearGradient id="linear-gradient-7" x1="287.51" y1="104.36" x2="287.51" y2="157.92" gradientUnits="userSpaceOnUse"><stop offset="0" stop-color="#de081a"/><stop offset="1" stop-color="#77081a"/></linearGradient><linearGradient id="linear-gradient-8" x1="326.02" y1="341.24" x2="387.06" y2="341.24" xlink:href="#linear-gradient-6"/></defs><title>Jax (2)</title><rect class="cls-1" width="566.93" height="566.93"/><circle class="cls-2" cx="287.51" cy="284.48" r="144.66"/><path class="cls-3" d="M211.44,202.59V407.53a144.75,144.75,0,0,0,145.17,4.06v-209Z"/><path class="cls-4" d="M418.78,188.4h0a26.77,26.77,0,0,1,26.77,26.77v19.51a26.77,26.77,0,0,1-26.77,26.77h0a0,0,0,0,1,0,0v-73A0,0,0,0,1,418.78,188.4Z"/><path class="cls-5" d="M129.47,188.4h0a26.77,26.77,0,0,1,26.77,26.77v19.51a26.77,26.77,0,0,1-26.77,26.77h0a0,0,0,0,1,0,0v-73A0,0,0,0,1,129.47,188.4Z" transform="translate(285.71 449.84) rotate(180)"/><path class="cls-6" d="M201.33,315.25c23.89-5.44,122.89-25.68,189.87-4a6.82,6.82,0,0,0,8.92-6l2.15-32.53a6.83,6.83,0,0,0-7.12-7.28l-208.6,9a6.84,6.84,0,0,0-5.89,9.77l13,27.36A6.84,6.84,0,0,0,201.33,315.25Z"/><rect class="cls-7" x="156.24" y="157.92" width="262.54" height="137.83" rx="33.89"/><rect class="cls-8" x="165.75" y="167.46" width="243.53" height="118.74" rx="23.13"/><path class="cls-9" d="M316.53,295.75H250.4V282.49a9.4,9.4,0,0,1,8.19-9.32l6.1-.79a146.57,146.57,0,0,1,37.55,0l6.1.79a9.4,9.4,0,0,1,8.19,9.32Z"/><path class="cls-10" d="M309,112.66a3.67,3.67,0,0,0-2.05-3.83,44.29,44.29,0,0,0-38.78,0,3.67,3.67,0,0,0-2.05,3.83l6.38,45.26h30.12Z"/><rect x="200.87" y="212.56" width="9.52" height="9.52"/><rect x="200.87" y="222.08" width="9.52" height="9.52"/><rect x="200.87" y="231.59" width="9.52" height="9.52"/><rect x="200.87" y="241.11" width="9.52" height="9.52"/><rect x="257.87" y="212.56" width="9.52" height="9.52"/><rect x="257.87" y="222.08" width="9.52" height="9.52"/><rect x="257.87" y="231.59" width="9.52" height="9.52"/><rect x="257.87" y="241.11" width="9.52" height="9.52"/><rect x="238.84" y="203.05" width="9.52" height="9.52" transform="translate(451.4 -35.79) rotate(90)"/><rect x="248.35" y="203.05" width="9.52" height="9.52" transform="translate(460.92 -45.31) rotate(90)"/><rect x="229.32" y="203.05" width="9.52" height="9.52" transform="translate(441.89 -26.28) rotate(90)"/><rect x="219.81" y="203.05" width="9.52" height="9.52" transform="translate(432.37 -16.76) rotate(90)"/><rect x="210.29" y="203.05" width="9.52" height="9.52" transform="translate(422.86 -7.24) rotate(90)"/><rect x="299.54" y="212.56" width="9.52" height="9.52"/><rect x="299.54" y="222.08" width="9.52" height="9.52"/><rect x="299.54" y="231.59" width="9.52" height="9.52"/><rect x="299.54" y="241.11" width="9.52" height="9.52"/><rect x="356.54" y="212.56" width="9.52" height="9.52"/><rect x="356.54" y="222.08" width="9.52" height="9.52"/><rect x="356.54" y="231.59" width="9.52" height="9.52"/><rect x="356.54" y="241.11" width="9.52" height="9.52"/><rect x="337.51" y="203.05" width="9.52" height="9.52" transform="translate(550.07 -134.46) rotate(90)"/><rect x="347.02" y="203.05" width="9.52" height="9.52" transform="translate(559.59 -143.98) rotate(90)"/><rect x="327.99" y="203.05" width="9.52" height="9.52" transform="translate(540.56 -124.95) rotate(90)"/><rect x="318.48" y="203.05" width="9.52" height="9.52" transform="translate(531.04 -115.43) rotate(90)"/><rect x="308.96" y="203.05" width="9.52" height="9.52" transform="translate(521.53 -105.92) rotate(90)"/><circle class="cls-11" cx="356.54" cy="341.24" r="30.52"/><path class="cls-12" d="M356.54,315.67A25.57,25.57,0,1,1,331,341.24"/><path d="M338.74,355.06c4.25,1.39,10,2,11.74,7,1,3,5.87,1.73,4.82-1.33s-3.25-5.08-5.77-7c-2.88-2.21-6.12-2.42-9.47-3.51-3.06-1-4.38,3.82-1.32,4.82Z"/><path d="M361.53,364.73c.76-1.5,1.4-3.79,2.65-4.93s2.61-.14,4.27-.36c3.25-.43,3.2-5.25,6.84-4.09,3.07,1,4.39-3.85,1.33-4.82-2.25-.72-4.59-1-6.63.41a6.69,6.69,0,0,0-1.51,1.54,11.16,11.16,0,0,0-1,1.58c0,.55-.31.52-1-.08-1.91,0-3.17-.07-4.77,1.14-2.24,1.7-3.28,4.66-4.51,7.09-1.46,2.86,2.86,5.4,4.31,2.52Z"/><path d="M344.75,334.38c-.91,2.48-2.9,5.72-2.54,8.48.14,1.08.82,1.64,1.18,2.59a4.48,4.48,0,0,1,.38,2.43c.08,5.42,5.29,6.72,9.87,5.51,4-1.06,7-5.54,6-9.58-.6-2.31-1.74-6.38-3.17-8.25-1.74-2.26-5.75-2.07-7.21-4.38l-1.5,3.67a19.25,19.25,0,0,0,6.52-3.46c3.76-2.65,7.08-2.41,11.34-1.33,3.12.78,4.45-4,1.33-4.83-3.61-.9-7.41-1.74-11.05-.51s-5.83,4.39-9.47,5.31a2.52,2.52,0,0,0-1.49,3.67c1.77,2.81,5.46,2.55,7.35,4.78,1,1.23,1.19,3.79,1.8,5.27.78,1.92,1.07,2.52-.73,4a2.71,2.71,0,0,1-2.91,1c-1.55-.15-2.08-.89-1.59-2.21-.24-1.15-.28-2-.62-3.11s-.76-1-.79-1.91c-.05-1.59,1.58-4.29,2.13-5.79,1.12-3-3.71-4.33-4.82-1.33Z"/><path d="M374.32,331.12c-.22-.91-.76-2.62-1.71-3.1s.37,3,.53,4c.38,2.64.6,3.61-1.59,5.48s-2.61,1.66-5.12,1.12a21.39,21.39,0,0,1-4.86-1.82,15.32,15.32,0,0,0-5.49-1.85c-1.88-.22-3.13,2.28-2.16,3.76,2.1,3.18,8.62,7.69,8.4,11.74l1.24-2.16c-.31.19-3.17-2-3.46-2.17-2.6-1.91-5.1,2.43-2.53,4.32s8.32,5.1,9.71.34c1.54-5.3-6.65-11-9-14.6l-2.16,3.77c3.27.37,6.48,3,9.83,3.68a14.45,14.45,0,0,0,7.36-.06c5.76-1.93,5.51-7.89,4.69-12.89-.62-3.72-3.77-8.84-8.36-6.88a4.23,4.23,0,0,0-2.61,3.32c-.27,2.48,2,3.21,2.51,5.34.77,3.12,5.59,1.8,4.82-1.33Z"/><path d="M335.93,336.41a10.48,10.48,0,0,1-3.57-4.23l-1.49,3.67a61.14,61.14,0,0,1,6.27-1.29,2.51,2.51,0,0,0,1.75-3.07,2.58,2.58,0,0,0-3.08-1.75,61.14,61.14,0,0,0-6.27,1.29,2.54,2.54,0,0,0-1.5,3.67,15.53,15.53,0,0,0,5.37,6c2.67,1.81,5.17-2.52,2.52-4.32Z"/><path d="M333,326.58a19,19,0,0,0,2.68,2.3c.37.26.8.48,1.14.77a3.7,3.7,0,0,1,.28.28s0-.74-.06.05a2.52,2.52,0,0,0,2.5,2.5A2.55,2.55,0,0,0,342,330c.23-3.52-3.47-4.8-5.51-6.94-2.23-2.33-5.76,1.21-3.53,3.54Z"/><path d="M343.91,324.77c-.46-2-.19-4.15-.69-6.14l-3.07,3.07a22.76,22.76,0,0,1,2.83.91,14.1,14.1,0,0,0,2.25,1.07c3.11.83,4.44-4,1.32-4.82-.73-.2-1.49-.79-2.24-1.07-.92-.35-1.89-.61-2.83-.91A2.53,2.53,0,0,0,338.4,320a19.48,19.48,0,0,1,.14,2.67,27.07,27.07,0,0,0,.55,3.46c.72,3.14,5.54,1.81,4.82-1.32Z"/><path d="M351.89,320.68q1.38-2.54,2.8-5L350,314.38v.17a2.56,2.56,0,0,0,2.5,2.5,2.53,2.53,0,0,0,2.5-2.5v-.17c-.12-2.39-3.38-3.51-4.66-1.26-.94,1.67-1.88,3.35-2.8,5-1.54,2.82,2.78,5.35,4.32,2.52Z"/><path d="M346.63,314.93c1,2.46,3.56,4,5.54,5.6a2.58,2.58,0,0,0,3.54,0,2.53,2.53,0,0,0,0-3.54l-2.56-2.09L352,314c-.16-.13-.73-.79-.56-.35a2.58,2.58,0,0,0-3.08-1.75,2.51,2.51,0,0,0-1.74,3.07Z"/><path class="cls-6" d="M437.6,193.52l-18.82,33.32v34.61s14.34,1.81,21.12-7.35,5.65-18.12,5.65-25.35,1.22-25.9-4.18-31.18S437.6,193.52,437.6,193.52Z"/></svg>