<svg id="Layer_1" data-name="Layer 1" xmlns="http://www.w3.org/2000/svg" xmlns:xlink="http://www.w3.org/1999/xlink" width="118.16mm" height="118.16mm" viewBox="0 0 334.94 334.94"><defs><style>.cls-1{fill:url(#linear-gradient);}.cls-2{fill:url(#linear-gradient-2);}.cls-3{fill:url(#linear-gradient-3);}.cls-4{fill:url(#linear-gradient-4);}.cls-5{opacity:0.2;}.cls-6{fill:#333;}.cls-7{fill:url(#linear-gradient-5);}.cls-8{fill:#1a1a1a;}.cls-9{fill:url(#linear-gradient-6);}.cls-10{fill:url(#linear-gradient-7);}.cls-11{fill:none;stroke:#000;stroke-linecap:round;stroke-miterlimit:10;stroke-width:5px;}</style><linearGradient id="linear-gradient" x1="165.41" y1="40.55" x2="165.41" y2="329.86" gradientUnits="userSpaceOnUse"><stop offset="0" stop-color="#fff"/><stop offset="0.76" stop-color="#ccc"/><stop offset="1" stop-color="#666"/></linearGradient><linearGradient id="linear-gradient-2" x1="161.93" y1="103.31" x2="161.93" y2="329.86" gradientUnits="userSpaceOnUse"><stop offset="0" stop-color="#de081a"/><stop offset="0.81" stop-color="#8b081a"/><stop offset="1" stop-color="#54081a"/></linearGradient><linearGradient id="linear-gradient-3" x1="323.45" y1="125.64" x2="296.68" y2="125.64" gradientUnits="userSpaceOnUse"><stop offset="0" stop-color="#8d081a"/><stop offset="1" stop-color="#5b081a"/></linearGradient><linearGradient id="linear-gradient-4" x1="7.37" y1="125.64" x2="34.14" y2="125.64" gradientTransform="translate(41.51 251.28) rotate(180)" xlink:href="#linear-gradient-3"/><linearGradient id="linear-gradient-5" x1="165.41" y1="68.18" x2="165.41" y2="186.92" gradientUnits="userSpaceOnUse"><stop offset="0" stop-color="#fff"/><stop offset="1" stop-color="#ccc"/></linearGradient><linearGradient id="linear-gradient-6" x1="165.41" y1="5.08" x2="165.41" y2="58.64" gradientUnits="userSpaceOnUse"><stop offset="0" stop-color="#de081a"/><stop offset="1" stop-color="#77081a"/></linearGradient><linearGradient id="linear-gradient-7" x1="203.92" y1="241.96" x2="264.96" y2="241.96" xlink:href="#linear-gradient-5"/></defs><title>Jax (2)</title><circle class="cls-1" cx="165.41" cy="185.2" r="144.66"/><path class="cls-2" d="M89.34,103.31V308.25a144.75,144.75,0,0,0,145.17,4.06v-209Z"/><path class="cls-3" d="M296.68,89.11h0a26.77,26.77,0,0,1,26.77,26.77v19.51a26.77,26.77,0,0,1-26.77,26.77h0a0,0,0,0,1,0,0v-73A0,0,0,0,1,296.68,89.11Z"/><path class="cls-4" d="M7.37,89.11h0a26.77,26.77,0,0,1,26.77,26.77v19.51A26.77,26.77,0,0,1,7.37,162.16h0a0,0,0,0,1,0,0v-73A0,0,0,0,1,7.37,89.11Z" transform="translate(41.51 251.28) rotate(-180)"/><path class="cls-5" d="M79.23,216c23.89-5.45,122.89-25.68,189.87-4a6.83,6.83,0,0,0,8.92-6.06l2.15-32.52a6.85,6.85,0,0,0-7.12-7.29l-208.6,9a6.84,6.84,0,0,0-5.89,9.76l13,27.37A6.85,6.85,0,0,0,79.23,216Z"/><rect class="cls-6" x="34.14" y="58.64" width="262.54" height="137.83" rx="33.89"/><rect class="cls-7" x="43.65" y="68.18" width="243.53" height="118.74" rx="23.13"/><path class="cls-8" d="M194.43,196.47H128.3V183.2a9.39,9.39,0,0,1,8.19-9.31l6.1-.79a146.57,146.57,0,0,1,37.55,0l6.1.79a9.39,9.39,0,0,1,8.19,9.31Z"/><path class="cls-9" d="M186.85,13.37a3.65,3.65,0,0,0-2-3.82,44.29,44.29,0,0,0-38.78,0A3.67,3.67,0,0,0,144,13.37l6.38,45.27h30.12Z"/><circle class="cls-10" cx="234.44" cy="241.96" r="30.52"/><path class="cls-11" d="M234.44,216.39A25.57,25.57,0,1,1,208.88,242"/><path d="M216.64,255.78c4.25,1.39,10,2,11.74,7,1,3,5.87,1.72,4.82-1.33s-3.25-5.08-5.77-7c-2.88-2.21-6.12-2.42-9.46-3.52-3.07-1-4.38,3.83-1.33,4.83Z"/><path d="M239.43,265.45c.76-1.5,1.4-3.79,2.65-4.93s2.61-.15,4.27-.37c3.25-.43,3.2-5.24,6.84-4.08,3.07,1,4.39-3.85,1.33-4.82-2.25-.72-4.59-1.05-6.63.4a6.94,6.94,0,0,0-1.51,1.55,10.62,10.62,0,0,0-1,1.58c0,.55-.31.52-1-.08-1.9,0-3.17-.07-4.77,1.14-2.24,1.7-3.28,4.66-4.51,7.09-1.46,2.86,2.86,5.39,4.31,2.52Z"/><path d="M222.65,235.09c-.91,2.48-2.9,5.72-2.54,8.48.14,1.08.82,1.65,1.18,2.59a4.52,4.52,0,0,1,.38,2.43c.08,5.42,5.29,6.73,9.87,5.52,4-1.06,7-5.54,6-9.59-.59-2.3-1.74-6.37-3.17-8.24-1.74-2.26-5.75-2.07-7.21-4.38l-1.5,3.67a19.42,19.42,0,0,0,6.52-3.46c3.77-2.65,7.08-2.41,11.34-1.34,3.12.79,4.45-4,1.33-4.82-3.61-.91-7.41-1.75-11.05-.51s-5.83,4.39-9.47,5.31a2.52,2.52,0,0,0-1.49,3.67c1.77,2.81,5.46,2.55,7.35,4.78,1,1.22,1.19,3.79,1.8,5.27.79,1.92,1.07,2.52-.73,4a2.71,2.71,0,0,1-2.91,1c-1.55-.15-2.08-.88-1.59-2.2-.24-1.15-.28-2-.62-3.11s-.76-1-.79-1.92c-.05-1.58,1.58-4.28,2.13-5.79,1.12-3-3.71-4.33-4.82-1.33Z"/><path d="M252.22,231.84c-.22-.91-.76-2.62-1.71-3.11s.37,3,.53,4c.38,2.65.6,3.61-1.59,5.48s-2.61,1.67-5.12,1.13a21.3,21.3,0,0,1-4.86-1.83,15.72,15.72,0,0,0-5.49-1.85c-1.88-.21-3.13,2.29-2.16,3.76,2.1,3.19,8.62,7.7,8.4,11.75l1.24-2.16c-.31.18-3.17-2-3.46-2.17-2.6-1.91-5.1,2.43-2.53,4.31s8.33,5.11,9.71.35c1.54-5.3-6.65-11-9-14.6L234,240.65c3.27.38,6.48,3,9.84,3.69a14.53,14.53,0,0,0,7.35-.06c5.76-1.94,5.51-7.9,4.69-12.89-.62-3.73-3.77-8.84-8.36-6.88a4.22,4.22,0,0,0-2.61,3.32c-.27,2.48,2,3.21,2.51,5.34.77,3.12,5.59,1.8,4.82-1.33Z"/><path d="M213.83,237.13a10.54,10.54,0,0,1-3.57-4.23l-1.49,3.67a61.14,61.14,0,0,1,6.27-1.29,2.52,2.52,0,0,0,1.75-3.08,2.56,2.56,0,0,0-3.08-1.74,56.22,56.22,0,0,0-6.27,1.29,2.53,2.53,0,0,0-1.49,3.67,15.5,15.5,0,0,0,5.36,6c2.67,1.8,5.18-2.53,2.52-4.32Z"/><path d="M210.87,227.29a19,19,0,0,0,2.68,2.31,12.64,12.64,0,0,1,1.14.77,2.47,2.47,0,0,1,.28.28c0-.05,0-.74-.06,0a2.5,2.5,0,0,0,5,0c.23-3.51-3.46-4.8-5.51-6.93-2.23-2.33-5.76,1.21-3.53,3.53Z"/><path d="M221.81,225.48c-.46-2-.19-4.14-.68-6.14l-3.08,3.08a21.82,21.82,0,0,1,2.84.91,12.8,12.8,0,0,0,2.24,1.06c3.11.83,4.44-4,1.33-4.82-.74-.19-1.5-.79-2.25-1.07-.92-.34-1.89-.61-2.83-.9a2.53,2.53,0,0,0-3.08,3.07,19.56,19.56,0,0,1,.14,2.67,27,27,0,0,0,.55,3.47c.72,3.14,5.54,1.81,4.82-1.33Z"/><path d="M229.79,221.4c.92-1.69,1.86-3.37,2.8-5l-4.66-1.26v.16a2.55,2.55,0,0,0,2.5,2.5,2.52,2.52,0,0,0,2.5-2.5v-.16c-.12-2.4-3.38-3.52-4.66-1.27q-1.41,2.52-2.79,5c-1.55,2.83,2.77,5.36,4.31,2.53Z"/><path d="M224.53,215.65c1,2.46,3.56,4,5.54,5.59a2.57,2.57,0,0,0,3.54,0,2.51,2.51,0,0,0,0-3.53l-2.56-2.1-1.14-.93c-.15-.13-.73-.79-.56-.36a2.58,2.58,0,0,0-3.08-1.74,2.51,2.51,0,0,0-1.74,3.07Z"/><path class="cls-5" d="M315.5,94.24l-18.82,33.31v34.61S311,164,317.8,154.82s5.65-18.12,5.65-25.35,1.22-25.9-4.18-31.18S315.5,94.24,315.5,94.24Z"/><rect x="103.27" y="125.68" width="9.52" height="9.52" transform="translate(216.05 260.87) rotate(-180)"/><rect x="112.21" y="125.68" width="9.52" height="9.52" transform="translate(233.93 260.87) rotate(-180)"/><rect x="121.72" y="135.19" width="9.52" height="9.52" transform="translate(252.96 279.9) rotate(-180)"/><rect x="131.24" y="135.15" width="9.52" height="9.52" transform="translate(271.99 279.82) rotate(-180)"/><rect x="85.21" y="116.22" width="9.52" height="9.52" transform="translate(179.94 241.96) rotate(-180)"/><rect x="94.16" y="116.22" width="9.52" height="9.52" transform="translate(197.83 241.96) rotate(-180)"/><rect x="210.78" y="125.65" width="9.52" height="9.52"/><rect x="201.83" y="125.65" width="9.52" height="9.52"/><rect x="192.32" y="135.16" width="9.52" height="9.52"/><rect x="182.8" y="135.12" width="9.52" height="9.52"/><rect x="228.83" y="116.19" width="9.52" height="9.52"/><rect x="219.89" y="116.19" width="9.52" height="9.52"/><rect x="130.79" y="135.19" width="9.52" height="9.52" transform="translate(271.1 279.9) rotate(-180)"/><rect x="183.29" y="135.19" width="9.52" height="9.52" transform="translate(376.09 279.9) rotate(-180)"/></svg>